<?xml version="1.0" encoding="UTF-8"?>
<svg width="18px" height="18px" viewBox="0 0 18 18" version="1.1" xmlns="http://www.w3.org/2000/svg" xmlns:xlink="http://www.w3.org/1999/xlink">
    <!-- Generator: sketchtool 49 (51002) - http://www.bohemiancoding.com/sketch -->
    <title>EFC874F0-414F-47E6-8C02-B299C0EB89FA</title>
    <desc>Created with sketchtool.</desc>
    <defs>
        <path d="M605.653164,342.142578 L606.545028,341.275391 C606.922665,340.908203 607.533311,340.908203 607.90693,341.275391 L615.716773,348.865234 C616.094409,349.232422 616.094409,349.826172 615.716773,350.189453 L607.90693,357.783203 C607.529294,358.150391 606.918647,358.150391 606.545028,357.783203 L605.653164,356.916016 C605.27151,356.544922 605.279545,355.939453 605.669233,355.576172 L610.510211,351.091797 L598.964178,351.091797 C598.429863,351.091797 598,350.673828 598,350.154297 L598,348.904297 C598,348.384766 598.429863,347.966797 598.964178,347.966797 L610.510211,347.966797 L605.669233,343.482422 C605.275527,343.119141 605.267492,342.513672 605.653164,342.142578 Z" id="path-1"></path>
    </defs>
    <g id="Page-1" stroke="none" stroke-width="1" fill="none" fill-rule="evenodd">
        <g id="Icons" transform="translate(-598.000000, -341.000000)">
            <mask id="mask-2" fill="white">
                <use xlink:href="#path-1"></use>
            </mask>
            <use id="arrow-right-copy" fill="#5E6064" fill-rule="nonzero" transform="translate(607.000000, 349.529297) rotate(-360.000000) translate(-607.000000, -349.529297) " xlink:href="#path-1"></use>
        </g>
    </g>
</svg>