<?xml version="1.0" encoding="UTF-8"?>
<svg width="14px" height="12px" viewBox="0 0 14 12" version="1.1" xmlns="http://www.w3.org/2000/svg" xmlns:xlink="http://www.w3.org/1999/xlink">
    <!-- Generator: sketchtool 49.3 (51167) - http://www.bohemiancoding.com/sketch -->
    <title>51A3C772-8710-42C1-8155-BC860653B30E</title>
    <desc>Created with sketchtool.</desc>
    <defs>
        <path d="M176.5,266.204082 L181.722222,266.204082 C181.998378,266.204082 182.222222,265.984806 182.222222,265.714286 L182.222222,264.489796 C182.222222,264.219276 181.998378,264 181.722222,264 L176.5,264 C176.223844,264 176,264.219276 176,264.489796 L176,265.714286 C176,265.984806 176.223844,266.204082 176.5,266.204082 Z M176.5,271.102041 L185.611111,271.102041 C185.887267,271.102041 186.111111,270.882765 186.111111,270.612245 L186.111111,269.387755 C186.111111,269.117235 185.887267,268.897959 185.611111,268.897959 L176.5,268.897959 C176.223844,268.897959 176,269.117235 176,269.387755 L176,270.612245 C176,270.882765 176.223844,271.102041 176.5,271.102041 Z M176.5,276 L189.5,276 C189.776156,276 190,275.780724 190,275.510204 L190,274.285714 C190,274.015194 189.776156,273.795918 189.5,273.795918 L176.5,273.795918 C176.223844,273.795918 176,274.015194 176,274.285714 L176,275.510204 C176,275.780724 176.223844,276 176.5,276 Z" id="path-1"></path>
    </defs>
    <g id="Page-1" stroke="none" stroke-width="1" fill="none" fill-rule="evenodd">
        <g id="05-Knowledge-management-Search-Results-Bank-Billing-Changes" transform="translate(-176.000000, -264.000000)">
            <mask id="mask-2" fill="white">
                <use xlink:href="#path-1"></use>
            </mask>
            <use id="bars" fill="#0060D6" fill-rule="nonzero" xlink:href="#path-1"></use>
        </g>
    </g>
</svg>