<?xml version="1.0" encoding="UTF-8"?>
<svg width="20px" height="18px" viewBox="0 0 20 18" version="1.1" xmlns="http://www.w3.org/2000/svg" xmlns:xlink="http://www.w3.org/1999/xlink">
    <!-- Generator: sketchtool 49.3 (51167) - http://www.bohemiancoding.com/sketch -->
    <title>8A267C19-3263-48FD-A96B-A4D2805F4AFA</title>
    <desc>Created with sketchtool.</desc>
    <defs>
        <path d="M259,353.875012 C259,353.140386 258.536111,352.515659 257.888889,352.283908 L257.888889,348.250003 C257.888889,347.007369 256.893958,346 255.666667,346 C253.410243,347.968753 250.735035,350.500007 246.222222,350.500007 L240.666667,350.500007 C239.746181,350.500007 239,351.255516 239,352.18751 L239,355.562515 C239,356.494508 239.746181,357.250017 240.666667,357.250017 L242.168854,357.250017 C241.51809,359.522873 242.254931,361.341473 242.822118,363.136589 C242.881215,363.323621 243.002778,363.48439 243.166632,363.589402 C243.88816,364.051883 245.540069,364.139845 246.422639,363.770492 C246.979792,363.537301 247.115694,362.806401 246.683819,362.380518 C246.041181,361.74679 245.637431,361.082898 245.996493,360.240975 C246.05382,360.106788 246.040164,359.95234 245.960208,359.830596 C245.393924,358.962973 245.835868,357.647143 246.950382,357.272904 C251.027882,357.527295 253.53441,359.889588 255.666667,361.750024 C256.893958,361.750024 257.888889,360.742656 257.888889,359.500021 L257.888889,355.466116 C258.536111,355.234366 259,354.609638 259,353.875012 Z M255.666667,358.791797 C253.770521,357.210502 251.325243,355.52437 247.888889,355.101018 L247.888889,352.648971 C251.325243,352.225619 253.770521,350.539523 255.666667,348.958192 L255.666667,358.791797 Z" id="path-1"></path>
    </defs>
    <g id="Page-1" stroke="none" stroke-width="1" fill="none" fill-rule="evenodd">
        <g id="Icons" transform="translate(-239.000000, -346.000000)">
            <mask id="mask-2" fill="white">
                <use xlink:href="#path-1"></use>
            </mask>
            <use id="bullhorn-copy" fill="#0060D6" fill-rule="nonzero" transform="translate(249.000000, 355.000000) scale(-1, 1) translate(-249.000000, -355.000000) " xlink:href="#path-1"></use>
        </g>
    </g>
</svg>