<?xml version="1.0" encoding="UTF-8"?>
<svg width="20px" height="18px" viewBox="0 0 20 18" version="1.1" xmlns="http://www.w3.org/2000/svg" xmlns:xlink="http://www.w3.org/1999/xlink">
    <!-- Generator: sketchtool 49 (51002) - http://www.bohemiancoding.com/sketch -->
    <title>3699D789-44AD-41ED-BBC2-1869E540E4FA</title>
    <desc>Created with sketchtool.</desc>
    <defs>
        <path d="M780,370.875014 C780,370.140389 779.536111,369.515662 778.888889,369.283912 L778.888889,365.250014 C778.888889,364.007381 777.893958,363.000014 776.666667,363.000014 C774.410243,364.968764 771.735035,367.500014 767.222222,367.500014 L761.666667,367.500014 C760.746181,367.500014 760,368.255522 760,369.187514 L760,372.562514 C760,373.494506 760.746181,374.250014 761.666667,374.250014 L763.168854,374.250014 C762.51809,376.522866 763.254931,378.341463 763.822118,380.136576 C763.881215,380.323608 764.002778,380.484377 764.166632,380.589389 C764.88816,381.051869 766.540069,381.13983 767.422639,380.770479 C767.979792,380.537287 768.115694,379.806389 767.683819,379.380506 C767.041181,378.74678 766.637431,378.082889 766.996493,377.240967 C767.05382,377.10678 767.040164,376.952332 766.960208,376.830588 C766.393924,375.962967 766.835868,374.647139 767.950382,374.272901 C772.027882,374.527291 774.53441,376.88958 776.666667,378.750014 C777.893958,378.750014 778.888889,377.742647 778.888889,376.500014 L778.888889,372.466116 C779.536111,372.234366 780,371.609639 780,370.875014 Z M776.666667,375.791791 C774.770521,374.210498 772.325243,372.524369 768.888889,372.101018 L768.888889,369.648975 C772.325243,369.225623 774.770521,367.53953 776.666667,365.958201 L776.666667,375.791791 Z" id="path-1"></path>
    </defs>
    <g id="Page-1" stroke="none" stroke-width="1" fill="none" fill-rule="evenodd">
        <g id="Icons" transform="translate(-760.000000, -363.000000)">
            <mask id="mask-2" fill="white">
                <use xlink:href="#path-1"></use>
            </mask>
            <use id="bullhorn" fill="#AEAFB1" fill-rule="nonzero" transform="translate(770.000000, 372.000000) scale(-1, 1) translate(-770.000000, -372.000000) " xlink:href="#path-1"></use>
        </g>
    </g>
</svg>