<?xml version="1.0" encoding="UTF-8"?>
<svg width="20px" height="18px" viewBox="0 0 20 18" version="1.1" xmlns="http://www.w3.org/2000/svg" xmlns:xlink="http://www.w3.org/1999/xlink">
    <!-- Generator: sketchtool 49.3 (51167) - http://www.bohemiancoding.com/sketch -->
    <title>D75844CB-4AF1-473C-AB01-E39C7B879E18</title>
    <desc>Created with sketchtool.</desc>
    <defs>
        <path d="M193,353.875012 C193,353.140386 192.536111,352.515659 191.888889,352.283908 L191.888889,348.250003 C191.888889,347.007369 190.893958,346 189.666667,346 C187.410243,347.968753 184.735035,350.500007 180.222222,350.500007 L174.666667,350.500007 C173.746181,350.500007 173,351.255516 173,352.18751 L173,355.562515 C173,356.494508 173.746181,357.250017 174.666667,357.250017 L176.168854,357.250017 C175.51809,359.522873 176.254931,361.341473 176.822118,363.136589 C176.881215,363.323621 177.002778,363.48439 177.166632,363.589402 C177.88816,364.051883 179.540069,364.139845 180.422639,363.770492 C180.979792,363.537301 181.115694,362.806401 180.683819,362.380518 C180.041181,361.74679 179.637431,361.082898 179.996493,360.240975 C180.05382,360.106788 180.040164,359.95234 179.960208,359.830596 C179.393924,358.962973 179.835868,357.647143 180.950382,357.272904 C185.027882,357.527295 187.53441,359.889588 189.666667,361.750024 C190.893958,361.750024 191.888889,360.742656 191.888889,359.500021 L191.888889,355.466116 C192.536111,355.234366 193,354.609638 193,353.875012 Z M189.666667,358.791797 C187.770521,357.210502 185.325243,355.52437 181.888889,355.101018 L181.888889,352.648971 C185.325243,352.225619 187.770521,350.539523 189.666667,348.958192 L189.666667,358.791797 Z" id="path-1"></path>
    </defs>
    <g id="Page-1" stroke="none" stroke-width="1" fill="none" fill-rule="evenodd">
        <g id="05-Knowledge-management-Search-Results-Bank-Billing-Changes" transform="translate(-173.000000, -346.000000)">
            <mask id="mask-2" fill="white">
                <use xlink:href="#path-1"></use>
            </mask>
            <use id="bullhorn" fill="#AEAFB1" fill-rule="nonzero" transform="translate(183.000000, 355.000000) scale(-1, 1) translate(-183.000000, -355.000000) " xlink:href="#path-1"></use>
        </g>
    </g>
</svg>