<?xml version="1.0" encoding="UTF-8"?>
<svg width="15px" height="20px" viewBox="0 0 15 20" version="1.1" xmlns="http://www.w3.org/2000/svg" xmlns:xlink="http://www.w3.org/1999/xlink">
    <!-- Generator: sketchtool 49.3 (51167) - http://www.bohemiancoding.com/sketch -->
    <title>EF4C122D-97DF-488D-B8DB-99EC06538E45</title>
    <desc>Created with sketchtool.</desc>
    <defs>
        <path d="M257,310.375 L257,324.125 C257,325.160547 256.160547,326 255.125,326 L243.875,326 C242.839453,326 242,325.160547 242,324.125 L242,310.375 C242,309.339453 242.839453,308.5 243.875,308.5 L247,308.5 C247,307.121484 248.121484,306 249.5,306 C250.878516,306 252,307.121484 252,308.5 L255.125,308.5 C256.160547,308.5 257,309.339453 257,310.375 Z M249.5,307.5625 C248.982227,307.5625 248.5625,307.982227 248.5625,308.5 C248.5625,309.017773 248.982227,309.4375 249.5,309.4375 C250.017773,309.4375 250.4375,309.017773 250.4375,308.5 C250.4375,307.982227 250.017773,307.5625 249.5,307.5625 Z M253.25,312.015625 L253.25,311.234375 C253.25,311.104933 253.145067,311 253.015625,311 L245.984375,311 C245.854933,311 245.75,311.104933 245.75,311.234375 L245.75,312.015625 C245.75,312.145067 245.854933,312.25 245.984375,312.25 L253.015625,312.25 C253.145067,312.25 253.25,312.145067 253.25,312.015625 Z" id="path-1"></path>
    </defs>
    <g id="Page-1" stroke="none" stroke-width="1" fill="none" fill-rule="evenodd">
        <g id="Icons" transform="translate(-242.000000, -306.000000)">
            <mask id="mask-2" fill="white">
                <use xlink:href="#path-1"></use>
            </mask>
            <use id="clipboard" fill="#0060D6" fill-rule="nonzero" xlink:href="#path-1"></use>
        </g>
    </g>
</svg>