<?xml version="1.0" encoding="UTF-8"?>
<svg width="20px" height="18px" viewBox="0 0 20 18" version="1.1" xmlns="http://www.w3.org/2000/svg" xmlns:xlink="http://www.w3.org/1999/xlink">
    <!-- Generator: sketchtool 49.3 (51167) - http://www.bohemiancoding.com/sketch -->
    <title>13948F8C-0DC6-4D4C-AB3F-ECC7BDE12BD9</title>
    <desc>Created with sketchtool.</desc>
    <defs>
        <path d="M258.085938,392.76699 L254.3125,391.312688 L254.3125,386.9538 C254.3125,386.351188 253.949219,385.812856 253.398438,385.599933 L249.492188,384.093405 C249.175781,383.968865 248.824219,383.968865 248.503906,384.093405 L244.597656,385.599933 C244.046875,385.812856 243.683594,386.351188 243.683594,386.9538 L243.683594,391.312688 L239.910156,392.76699 C239.363281,392.979913 239,393.518246 239,394.120857 L239,398.544024 C239,399.090392 239.300781,399.592568 239.777344,399.83763 L243.683594,401.846334 C244.078125,402.051222 244.546875,402.051222 244.941406,401.846334 L249,399.757282 L253.058594,401.846334 C253.453125,402.051222 253.921875,402.051222 254.316406,401.846334 L258.222656,399.83763 C258.699219,399.592568 259,399.090392 259,398.544024 L259,394.120857 C259,393.518246 258.636719,392.979913 258.085938,392.76699 Z M252.984375,391.344828 L249.664062,392.626381 L249.664062,389.886508 L252.984375,388.400067 L252.984375,391.344828 Z M245.015625,386.897556 L249,385.362906 L252.984375,386.897556 L252.984375,386.921661 L249,388.584868 L245.015625,386.921661 L245.015625,386.897556 Z M248.296875,398.592233 L244.976562,400.299632 L244.976562,397.121861 L248.296875,395.563107 L248.296875,398.592233 Z M248.296875,394.092735 L244.3125,395.755942 L240.328125,394.092735 L240.328125,394.068631 L244.3125,392.533981 L248.296875,394.068631 L248.296875,394.092735 Z M257.671875,398.592233 L254.351562,400.299632 L254.351562,397.121861 L257.671875,395.563107 L257.671875,398.592233 Z M257.671875,394.092735 L253.6875,395.755942 L249.703125,394.092735 L249.703125,394.068631 L253.6875,392.533981 L257.671875,394.068631 L257.671875,394.092735 Z" id="path-1"></path>
    </defs>
    <g id="Page-1" stroke="none" stroke-width="1" fill="none" fill-rule="evenodd">
        <g id="Icons" transform="translate(-239.000000, -384.000000)">
            <mask id="mask-2" fill="white">
                <use xlink:href="#path-1"></use>
            </mask>
            <use id="cubes-copy" fill="#0060D6" fill-rule="nonzero" xlink:href="#path-1"></use>
        </g>
    </g>
</svg>