<?xml version="1.0" encoding="UTF-8"?>
<svg width="20px" height="18px" viewBox="0 0 20 18" version="1.1" xmlns="http://www.w3.org/2000/svg" xmlns:xlink="http://www.w3.org/1999/xlink">
    <!-- Generator: sketchtool 49.3 (51167) - http://www.bohemiancoding.com/sketch -->
    <title>CAE02890-45A9-44CA-AB38-C7612218680A</title>
    <desc>Created with sketchtool.</desc>
    <defs>
        <path d="M192.085938,392.76699 L188.3125,391.312688 L188.3125,386.9538 C188.3125,386.351188 187.949219,385.812856 187.398438,385.599933 L183.492188,384.093405 C183.175781,383.968865 182.824219,383.968865 182.503906,384.093405 L178.597656,385.599933 C178.046875,385.812856 177.683594,386.351188 177.683594,386.9538 L177.683594,391.312688 L173.910156,392.76699 C173.363281,392.979913 173,393.518246 173,394.120857 L173,398.544024 C173,399.090392 173.300781,399.592568 173.777344,399.83763 L177.683594,401.846334 C178.078125,402.051222 178.546875,402.051222 178.941406,401.846334 L183,399.757282 L187.058594,401.846334 C187.453125,402.051222 187.921875,402.051222 188.316406,401.846334 L192.222656,399.83763 C192.699219,399.592568 193,399.090392 193,398.544024 L193,394.120857 C193,393.518246 192.636719,392.979913 192.085938,392.76699 Z M186.984375,391.344828 L183.664062,392.626381 L183.664062,389.886508 L186.984375,388.400067 L186.984375,391.344828 Z M179.015625,386.897556 L183,385.362906 L186.984375,386.897556 L186.984375,386.921661 L183,388.584868 L179.015625,386.921661 L179.015625,386.897556 Z M182.296875,398.592233 L178.976562,400.299632 L178.976562,397.121861 L182.296875,395.563107 L182.296875,398.592233 Z M182.296875,394.092735 L178.3125,395.755942 L174.328125,394.092735 L174.328125,394.068631 L178.3125,392.533981 L182.296875,394.068631 L182.296875,394.092735 Z M191.671875,398.592233 L188.351562,400.299632 L188.351562,397.121861 L191.671875,395.563107 L191.671875,398.592233 Z M191.671875,394.092735 L187.6875,395.755942 L183.703125,394.092735 L183.703125,394.068631 L187.6875,392.533981 L191.671875,394.068631 L191.671875,394.092735 Z" id="path-1"></path>
    </defs>
    <g id="Page-1" stroke="none" stroke-width="1" fill="none" fill-rule="evenodd">
        <g id="05-Knowledge-management-Search-Results-Bank-Billing-Changes" transform="translate(-173.000000, -384.000000)">
            <mask id="mask-2" fill="white">
                <use xlink:href="#path-1"></use>
            </mask>
            <use id="cubes" fill="#0060D6" fill-rule="nonzero" xlink:href="#path-1"></use>
        </g>
    </g>
</svg>