<?xml version="1.0" encoding="UTF-8"?>
<svg width="15px" height="20px" viewBox="0 0 15 20" version="1.1" xmlns="http://www.w3.org/2000/svg" xmlns:xlink="http://www.w3.org/1999/xlink">
    <!-- Generator: sketchtool 49.3 (51167) - http://www.bohemiancoding.com/sketch -->
    <title>7E63D533-6D2E-454D-82EB-64E322FCE08C</title>
    <desc>Created with sketchtool.</desc>
    <defs></defs>
    <g id="Page-1" stroke="none" stroke-width="1" fill="none" fill-rule="evenodd">
        <g id="05-Knowledge-management-Search-Results-Bank-Billing-Changes" transform="translate(-176.000000, -463.000000)" fill="#0060D6" fill-rule="nonzero">
            <g id="doc-file-format-symbol-copy" transform="translate(176.000000, 463.000000)">
                <path d="M7.47731397,15.0117967 C6.80286751,15.0117967 6.40961887,15.6537931 6.40961887,16.5116878 C6.40961887,17.3764791 6.81578947,17.9855535 7.48384755,17.9855535 C8.15876588,17.9855535 8.54504537,17.3435572 8.54504537,16.4856624 C8.54504537,15.6928494 8.16526316,15.0117967 7.47731397,15.0117967 Z" id="Shape"></path>
                <path d="M2.45263158,15.0248276 C2.22980036,15.0248276 2.08548094,15.0443557 2.00050817,15.0638838 L2.00050817,17.9526679 C2.08548094,17.9725953 2.22330309,17.9725953 2.3476225,17.9725953 C3.25136116,17.9791289 3.84094374,17.4810526 3.84094374,16.4267514 C3.84784029,15.5094737 3.31056261,15.0248276 2.45263158,15.0248276 Z" id="Shape"></path>
                <path d="M14.5225045,4.79099819 C14.521343,4.69931034 14.4922686,4.60874773 14.4292922,4.53716878 L10.5743739,0.134083485 C10.5736116,0.132849365 10.5724501,0.132450091 10.5713249,0.131324864 C10.5483485,0.105662432 10.5219601,0.0845009074 10.4936116,0.0658439201 C10.4851906,0.060399274 10.4767332,0.0554990926 10.4679492,0.0505263158 C10.443049,0.0372413793 10.4173866,0.0262068966 10.3905989,0.0181488203 C10.3833394,0.0160435572 10.3768421,0.0130671506 10.3695463,0.0111796733 C10.3401089,0.00413793103 10.3102359,0 10.2796007,0 L0.805807623,0 C0.373575318,0 0.0217785844,0.351833031 0.0217785844,0.784065336 L0.0217785844,19.2087477 C0.0217785844,19.6411615 0.373575318,19.9928131 0.805807623,19.9928131 L13.7422868,19.9928131 C14.174882,19.9928131 14.5263521,19.6411615 14.5263521,19.2087477 L14.5263521,4.83491833 C14.5263158,4.82018149 14.524029,4.80573503 14.5225045,4.79099819 Z M4.16892922,18.1819964 C3.70381125,18.5686388 2.99633394,18.7520145 2.13143376,18.7520145 C1.61375681,18.7520145 1.24700544,18.7190926 0.998257713,18.6865336 L0.998257713,14.3502722 C1.36500907,14.2913249 1.84326679,14.2584029 2.34780399,14.2584029 C3.186098,14.2584029 3.72980036,14.4092559 4.15553539,14.7300544 C4.61426497,15.0707804 4.90250454,15.6143739 4.90250454,16.3938294 C4.90235935,17.2389111 4.59466425,17.8217423 4.16892922,18.1819964 Z M7.43136116,18.7784392 C6.12134301,18.7784392 5.35491833,17.7892196 5.35491833,16.5314338 C5.35491833,15.2082033 6.1999274,14.2191652 7.50333938,14.2191652 C8.85927405,14.2191652 9.59970962,15.2346279 9.59970962,16.4527768 C9.59974592,17.9006171 8.72188748,18.7784392 7.43136116,18.7784392 Z M12.5149546,17.9465699 C12.816225,17.9465699 13.1504537,17.880726 13.346824,17.8023956 L13.4976407,18.5818512 C13.314265,18.6739383 12.9015971,18.7719056 12.3644646,18.7719056 C10.8381488,18.7719056 10.052196,17.8219238 10.052196,16.5643557 C10.052196,15.057931 11.1264247,14.2193829 12.4624682,14.2193829 C12.9800726,14.2193829 13.3732123,14.3241016 13.5500907,14.415971 L13.3467877,15.2084211 C13.1440653,15.123412 12.8621053,15.0445372 12.5085662,15.0445372 C11.7161162,15.0445372 11.0999637,15.5229038 11.0999637,16.5054083 C11.1000363,17.3895463 11.6241016,17.9465699 12.5149546,17.9465699 Z M0.805807623,13.3122323 L0.805807623,0.784065336 L9.88758621,0.784065336 L9.88758621,4.79549909 C9.88758621,5.01186933 10.0629401,5.18751361 10.2796007,5.18751361 L13.7422868,5.18751361 L13.742686,13.3122323 L0.805807623,13.3122323 Z" id="Shape"></path>
                <path d="M6.28032668,5.41194192 L9.13303085,5.41194192 C9.27622505,5.41194192 9.39259528,5.29575318 9.39259528,5.1523049 C9.39259528,5.00885662 9.27622505,4.89255898 9.13303085,4.89255898 L6.28032668,4.89255898 C6.13684211,4.89255898 6.02094374,5.00885662 6.02094374,5.1523049 C6.02076225,5.29575318 6.13655172,5.41194192 6.28032668,5.41194192 Z" id="Shape"></path>
                <path d="M10.5284574,6.97001815 L3.43150635,6.97001815 C3.28805808,6.97001815 3.17157895,7.0862069 3.17157895,7.22965517 C3.17157895,7.37321234 3.28805808,7.4892196 3.43150635,7.4892196 L10.5284574,7.4892196 C10.6720145,7.4892196 10.7884211,7.37321234 10.7884211,7.22965517 C10.7884211,7.08624319 10.6722323,6.97001815 10.5284574,6.97001815 Z" id="Shape"></path>
                <path d="M4.17324864,5.93219601 L4.41375681,4.95444646 C4.47528131,4.71709619 4.51557169,4.51662432 4.55274047,4.29455535 L4.55876588,4.29455535 C4.58326679,4.51956443 4.62029038,4.71709619 4.67266788,4.95444646 L4.88885662,5.93219601 L5.29618875,5.93219601 L5.85397459,3.85353902 L5.46845735,3.85353902 L5.25263158,4.79415608 C5.19713249,5.04718693 5.14751361,5.28435572 5.1107078,5.51292196 L5.10428312,5.51292196 C5.07364791,5.2877314 5.03038113,5.05640653 4.97803993,4.80965517 L4.77139746,3.85375681 L4.37357532,3.85375681 L4.14874773,4.79437387 C4.08969147,5.05644283 4.0307441,5.30344828 3.99724138,5.52214156 L3.99150635,5.52214156 C3.95760436,5.31560799 3.90805808,5.05019964 3.85549909,4.79735027 L3.65807623,3.85375681 L3.25401089,3.85375681 L3.76297641,5.93241379 L4.17324864,5.93241379 L4.17324864,5.93219601 Z" id="Shape"></path>
                <path d="M10.5284574,9.03263158 L3.43150635,9.03263158 C3.28805808,9.03263158 3.17157895,9.14882033 3.17157895,9.2923775 C3.17157895,9.43582577 3.28805808,9.55201452 3.43150635,9.55201452 L10.5284574,9.55201452 C10.6720145,9.55201452 10.7884211,9.43582577 10.7884211,9.2923775 C10.7884211,9.14882033 10.6722323,9.03263158 10.5284574,9.03263158 Z" id="Shape"></path>
                <path d="M10.5284574,11.1444646 L3.43150635,11.1444646 C3.28805808,11.1444646 3.17157895,11.2608348 3.17157895,11.404392 C3.17157895,11.5477677 3.28805808,11.6639564 3.43150635,11.6639564 L10.5284574,11.6639564 C10.6720145,11.6639564 10.7884211,11.5477677 10.7884211,11.404392 C10.7884211,11.2608348 10.6722323,11.1444646 10.5284574,11.1444646 Z" id="Shape"></path>
            </g>
        </g>
    </g>
</svg>