<?xml version="1.0" encoding="UTF-8"?>
<svg width="24px" height="24px" viewBox="0 0 24 24" version="1.1" xmlns="http://www.w3.org/2000/svg" xmlns:xlink="http://www.w3.org/1999/xlink">
    <!-- Generator: sketchtool 49 (51002) - http://www.bohemiancoding.com/sketch -->
    <title>5E178494-C0FB-4C5A-ABF2-4E040AA6C533</title>
    <desc>Created with sketchtool.</desc>
    <defs>
        <path d="M10.4375,2 L13.5625,2 C14.0820312,2 14.5,2.41796875 14.5,2.9375 L14.5,9.5 L17.9257812,9.5 C18.6210937,9.5 18.96875,10.3398438 18.4765625,10.8320312 L12.5351562,16.7773438 C12.2421875,17.0703125 11.7617187,17.0703125 11.46875,16.7773438 L5.51953125,10.8320312 C5.02734375,10.3398438 5.375,9.5 6.0703125,9.5 L9.5,9.5 L9.5,2.9375 C9.5,2.41796875 9.91796875,2 10.4375,2 Z M22,16.6875 L22,21.0625 C22,21.5820312 21.5820312,22 21.0625,22 L2.9375,22 C2.41796875,22 2,21.5820312 2,21.0625 L2,16.6875 C2,16.1679688 2.41796875,15.75 2.9375,15.75 L8.66796875,15.75 L10.5820312,17.6640625 C11.3671875,18.4492188 12.6328125,18.4492188 13.4179687,17.6640625 L15.3320312,15.75 L21.0625,15.75 C21.5820312,15.75 22,16.1679688 22,16.6875 Z M17.15625,20.125 C17.15625,19.6953125 16.8046875,19.34375 16.375,19.34375 C15.9453125,19.34375 15.59375,19.6953125 15.59375,20.125 C15.59375,20.5546875 15.9453125,20.90625 16.375,20.90625 C16.8046875,20.90625 17.15625,20.5546875 17.15625,20.125 Z M19.65625,20.125 C19.65625,19.6953125 19.3046875,19.34375 18.875,19.34375 C18.4453125,19.34375 18.09375,19.6953125 18.09375,20.125 C18.09375,20.5546875 18.4453125,20.90625 18.875,20.90625 C19.3046875,20.90625 19.65625,20.5546875 19.65625,20.125 Z" id="path-1"></path>
    </defs>
    <g id="Symbols" stroke="none" stroke-width="1" fill="none" fill-rule="evenodd">
        <g id="Icons/Solid/download">
            <mask id="mask-2" fill="white">
                <use xlink:href="#path-1"></use>
            </mask>
            <use id="download" fill="#000000" fill-rule="nonzero" xlink:href="#path-1"></use>
            <g id="Colors/Primary" mask="url(#mask-2)" fill="#FFFFFF">
                <rect id="Rectangle" x="0" y="0" width="24" height="24"></rect>
            </g>
        </g>
    </g>
</svg>