<?xml version="1.0" encoding="UTF-8"?>
<svg width="20px" height="14px" viewBox="0 0 20 14" version="1.1" xmlns="http://www.w3.org/2000/svg" xmlns:xlink="http://www.w3.org/1999/xlink">
    <!-- Generator: sketchtool 49 (51002) - http://www.bohemiancoding.com/sketch -->
    <title>8CD7F8CC-DCE3-4C9C-ADD6-51BAEC071E42</title>
    <desc>Created with sketchtool.</desc>
    <defs>
        <path d="M19.7692191,6.14327734 C17.8114099,2.77945703 14.1600619,0.53125 9.99999953,0.53125 C5.83820101,0.53125 2.18765162,2.78103906 0.23077993,6.14327734 C-0.0769266434,6.67195137 -0.0769266434,7.32808379 0.23077993,7.85675781 C2.18858912,11.220543 5.83993712,13.46875 9.99999953,13.46875 C14.1617981,13.46875 17.8123474,11.2189609 19.7692191,7.85672266 C20.076927,7.32806156 20.076927,6.67193844 19.7692191,6.14327734 Z M9.99999953,11.78125 C7.39021228,11.78125 5.27778529,9.64280078 5.27778529,7 C5.27778529,4.35758594 7.38979561,2.21875 9.99999953,2.21875 C12.6097868,2.21875 14.7222138,4.35716406 14.7222138,7 C14.7222138,9.64241406 12.6102035,11.78125 9.99999953,11.78125 Z M13.6111045,7 C13.6111045,9.01930469 11.9943712,10.65625 9.99999953,10.65625 C8.0056279,10.65625 6.38889453,9.01930469 6.38889453,7 C6.38889453,6.37745313 6.54274843,5.79136328 6.81375492,5.27829297 L6.8137202,5.27941797 C6.8137202,6.11089844 7.47944824,6.78491406 8.30066213,6.78491406 C9.12187602,6.78491406 9.78760406,6.11086328 9.78760406,5.27941797 C9.78760406,4.4479375 9.12187602,3.77388672 8.30066213,3.77388672 L8.29955102,3.77392188 C8.80628627,3.49952734 9.38513946,3.34375 9.99999953,3.34375 C11.9943712,3.34375 13.6111045,4.98069531 13.6111045,7 Z" id="path-1"></path>
    </defs>
    <g id="Page-1" stroke="none" stroke-width="1" fill="none" fill-rule="evenodd">
        <g id="Icons" transform="translate(-762.000000, -402.000000)">
            <g id="Icons/Solid/eye" transform="translate(762.000000, 402.000000)">
                <mask id="mask-2" fill="white">
                    <use xlink:href="#path-1"></use>
                </mask>
                <use id="eye" fill="#AFB0B2" fill-rule="nonzero" xlink:href="#path-1"></use>
            </g>
        </g>
    </g>
</svg>