<?xml version="1.0" encoding="UTF-8"?>
<svg width="15px" height="20px" viewBox="0 0 15 20" version="1.1" xmlns="http://www.w3.org/2000/svg" xmlns:xlink="http://www.w3.org/1999/xlink">
    <!-- Generator: sketchtool 49 (51002) - http://www.bohemiancoding.com/sketch -->
    <title>6FA621D5-E30F-4F9C-9F23-F70D8706A1F6</title>
    <desc>Created with sketchtool.</desc>
    <defs></defs>
    <g id="Page-1" stroke="none" stroke-width="1" fill="none" fill-rule="evenodd">
        <g id="Icons" transform="translate(-242.000000, -543.000000)" fill="#0060D6" fill-rule="nonzero">
            <g id="Group-3" transform="translate(242.000000, 543.000000)">
                <path d="M14.584402,4.79290199 C14.5832703,4.70118119 14.5541742,4.61058602 14.4908709,4.53901765 L10.6135253,0.134131684 C10.6127586,0.132897121 10.6115904,0.132497703 10.6104222,0.131372072 C10.5873132,0.105700415 10.5607725,0.0845312835 10.5322605,0.0658675894 C10.5237908,0.0604209861 10.5153212,0.0554464218 10.50645,0.0505444788 C10.4814061,0.0372547667 10.4556321,0.0262163173 10.4286899,0.0181553444 C10.4213884,0.0160493244 10.4148172,0.013071848 10.4075158,0.0111836921 C10.377872,0.00432097196 10.3478632,0 10.3170512,0 L0.788553259,0 C0.353863275,0 0,0.351959506 0,0.784347188 L0,19.2156528 C0,19.648222 0.353826768,20 0.788553259,20 L13.799682,20 C14.2347736,20 14.5882353,19.648222 14.5882353,19.2156528 L14.5882353,4.83683792 C14.5882353,4.82191423 14.5859353,4.80746257 14.584402,4.79290199 Z M4.58499912,18.9985149 L4.14220456,18.1176902 C3.96087381,17.7783668 3.84459872,17.5256081 3.70674792,17.2441277 L3.6922181,17.2441277 C3.59047283,17.5257897 3.46726138,17.7783668 3.31488076,18.1176902 L2.90815521,18.9985149 L1.64522876,18.9985149 L3.06071837,16.536396 L1.69615616,14.1321564 L2.96631102,14.1321564 L3.39446623,15.0202432 C3.53961844,15.3162843 3.64859212,15.5544824 3.76497674,15.8287007 L3.77914149,15.8287007 C3.89541659,15.5184985 3.98967791,15.3017237 4.11288936,15.0202432 L4.52687982,14.1321564 L5.78980628,14.1321564 L4.41078726,16.5076743 L5.86267444,18.9985149 L4.58499912,18.9985149 Z M9.51309192,18.9985149 L6.45708297,18.9985149 L6.45708297,14.1325558 L7.56792086,14.1325558 L7.56792086,18.0744079 L9.51309192,18.0744079 L9.51309192,18.9985149 Z M11.3635636,19.0704827 C10.804859,19.0704827 10.2531272,18.9260751 9.97742566,18.7744779 L10.2024919,17.8649315 C10.5003168,18.0162018 10.9575682,18.1678353 11.4293859,18.1678353 C11.9374551,18.1678353 12.2058188,17.9587583 12.2058188,17.6408946 C12.2058188,17.3375551 11.9734511,17.1642804 11.3856869,16.9549856 C10.5728564,16.6735052 10.0424813,16.2258307 10.0424813,15.5184622 C10.0424813,14.6882183 10.7394018,14.0526723 11.8939386,14.0526723 C12.4453418,14.0526723 12.8517023,14.1683581 13.1422258,14.2981689 L12.8954013,15.1860741 C12.6994312,15.0922473 12.3507519,14.9551381 11.8721804,14.9551381 C11.3932073,14.9551381 11.1610222,15.1715135 11.1610222,15.4244901 C11.1610222,15.7348739 11.4367238,15.8719467 12.068187,16.1101812 C12.9318354,16.4280449 13.3384149,16.87532 13.3384149,17.5612289 C13.3380498,18.377711 12.7067691,19.0704827 11.3635636,19.0704827 Z M0.788553259,13.3172356 L0.788553259,0.784492431 L9.92277454,0.784492431 L9.92277454,4.79740451 C9.92277454,5.01388884 10.0991038,5.18955995 10.3170512,5.18955995 L13.799682,5.18955995 L13.8000836,13.3172356 L0.788553259,13.3172356 Z" id="Shape"></path>
                <path d="M8.45852603,5 L5.42411539,5 L2,5 L2,6.4800759 L2,6.67741935 L2,7.9601518 L2,8.15749526 L2,9.4402277 L2,9.63757116 L2,11.1176471 L5.2291368,11.1176471 L5.42386297,11.1176471 L8.45848997,11.1176471 L8.65318008,11.1176471 L11.8823529,11.1176471 L11.8823529,9.4402277 L11.8823529,8.15749526 L11.8823529,6.67741935 L11.8823529,6.4800759 L11.8823529,5 L8.45852603,5 Z M8.45852603,7.9601518 L5.42411539,7.9601518 L5.42411539,6.67741935 L8.45852603,6.67741935 L8.45852603,7.9601518 Z M2.19472617,5.19734345 L5.2291368,5.19734345 L5.2291368,6.4800759 L2.19472617,6.4800759 L2.19472617,5.19734345 Z M2.19472617,6.67741935 L5.2291368,6.67741935 L5.2291368,7.9601518 L2.19472617,7.9601518 L2.19472617,6.67741935 Z M2.19472617,8.15749526 L5.2291368,8.15749526 L5.2291368,9.4402277 L2.19472617,9.4402277 L2.19472617,8.15749526 Z M2.19472617,10.9203036 L2.19472617,9.63757116 L5.2291368,9.63757116 L5.2291368,10.9203036 L2.19472617,10.9203036 Z M5.42407933,10.9203036 L5.42407933,9.63757116 L8.45848997,9.63757116 L8.45848997,10.9203036 L5.42407933,10.9203036 Z M11.6876268,10.9203036 L8.65321614,10.9203036 L8.65321614,9.63757116 L11.6876268,9.63757116 L11.6876268,10.9203036 Z M11.6876268,7.9601518 L8.65321614,7.9601518 L8.65321614,6.67741935 L11.6876268,6.67741935 L11.6876268,7.9601518 Z M8.65321614,6.4800759 L8.65321614,5.19734345 L11.6876268,5.19734345 L11.6876268,6.4800759 L8.65321614,6.4800759 Z" id="Shape"></path>
            </g>
        </g>
    </g>
</svg>