<?xml version="1.0" encoding="UTF-8"?>
<svg width="15px" height="20px" viewBox="0 0 15 20" version="1.1" xmlns="http://www.w3.org/2000/svg" xmlns:xlink="http://www.w3.org/1999/xlink">
    <!-- Generator: sketchtool 49 (51002) - http://www.bohemiancoding.com/sketch -->
    <title>0D2F928B-0CAB-4A4C-892B-F41DEA844A08</title>
    <desc>Created with sketchtool.</desc>
    <defs></defs>
    <g id="Page-1" stroke="none" stroke-width="1" fill="none" fill-rule="evenodd">
        <g id="Icons" transform="translate(-242.000000, -463.000000)" fill="#0060D6" fill-rule="nonzero">
            <g id="Group" transform="translate(242.000000, 463.000000)">
                <path d="M8.0676951,15 C7.39324864,15 7,15.6419964 7,16.4998911 C7,17.3646824 7.4061706,17.9737568 8.07422868,17.9737568 C8.74914701,17.9737568 9.1354265,17.3317604 9.1354265,16.4738657 C9.1354265,15.6810526 8.75564428,15 8.0676951,15 Z" id="Shape"></path>
                <path d="M2.45212341,15 C2.2292922,15 2.08497278,15.0195281 2,15.0390563 L2,17.9278403 C2.08497278,17.9477677 2.22279492,17.9477677 2.34711434,17.9477677 C3.25085299,17.9543013 3.84043557,17.456225 3.84043557,16.4019238 C3.84733212,15.4846461 3.31005445,15 2.45212341,15 Z" id="Shape"></path>
                <path d="M14.500726,4.79099819 C14.4995644,4.69931034 14.47049,4.60874773 14.4075136,4.53716878 L10.5525953,0.134083485 C10.551833,0.132849365 10.5506715,0.132450091 10.5495463,0.131324864 C10.5265699,0.105662432 10.5001815,0.0845009074 10.471833,0.0658439201 C10.463412,0.060399274 10.4549546,0.0554990926 10.4461706,0.0505263158 C10.4212704,0.0372413793 10.395608,0.0262068966 10.3688203,0.0181488203 C10.3615608,0.0160435572 10.3550635,0.0130671506 10.3477677,0.0111796733 C10.3183303,0.00413793103 10.2884574,0 10.2578221,0 L0.784029038,0 C0.351796733,0 0,0.351833031 0,0.784065336 L0,19.2087477 C0,19.6411615 0.351796733,19.9928131 0.784029038,19.9928131 L13.7205082,19.9928131 C14.1531034,19.9928131 14.5045735,19.6411615 14.5045735,19.2087477 L14.5045735,4.83491833 C14.5045372,4.82018149 14.5022505,4.80573503 14.500726,4.79099819 Z M4.14715064,18.1819964 C3.68203267,18.5686388 2.97455535,18.7520145 2.10965517,18.7520145 C1.59197822,18.7520145 1.22522686,18.7190926 0.976479129,18.6865336 L0.976479129,14.3502722 C1.34323049,14.2913249 1.8214882,14.2584029 2.32602541,14.2584029 C3.16431942,14.2584029 3.70802178,14.4092559 4.13375681,14.7300544 C4.59248639,15.0707804 4.88072595,15.6143739 4.88072595,16.3938294 C4.88058076,17.2389111 4.57288566,17.8217423 4.14715064,18.1819964 Z M7.40958258,18.7784392 C6.09956443,18.7784392 5.33313975,17.7892196 5.33313975,16.5314338 C5.33313975,15.2082033 6.17814882,14.2191652 7.4815608,14.2191652 C8.83749546,14.2191652 9.57793103,15.2346279 9.57793103,16.4527768 C9.57796733,17.9006171 8.70010889,18.7784392 7.40958258,18.7784392 Z M12.493176,17.9465699 C12.7944465,17.9465699 13.1286751,17.880726 13.3250454,17.8023956 L13.4758621,18.5818512 C13.2924864,18.6739383 12.8798185,18.7719056 12.342686,18.7719056 C10.8163702,18.7719056 10.0304174,17.8219238 10.0304174,16.5643557 C10.0304174,15.057931 11.1046461,14.2193829 12.4406897,14.2193829 C12.958294,14.2193829 13.3514338,14.3241016 13.5283122,14.415971 L13.3250091,15.2084211 C13.1222868,15.123412 12.8403267,15.0445372 12.4867877,15.0445372 C11.6943376,15.0445372 11.0781851,15.5229038 11.0781851,16.5054083 C11.0782577,17.3895463 11.602323,17.9465699 12.493176,17.9465699 Z M0.784029038,13.3122323 L0.784029038,0.784065336 L9.86580762,0.784065336 L9.86580762,4.79549909 C9.86580762,5.01186933 10.0411615,5.18751361 10.2578221,5.18751361 L13.7205082,5.18751361 L13.7209074,13.3122323 L0.784029038,13.3122323 Z" id="Shape"></path>
                <path d="M6.25938315,5.51938294 L9.11208733,5.51938294 C9.25528152,5.51938294 9.37165176,5.40319419 9.37165176,5.25974592 C9.37165176,5.11629764 9.25528152,5 9.11208733,5 L6.25938315,5 C6.11589858,5 6.00000021,5.11629764 6.00000021,5.25974592 C5.99981872,5.40319419 6.1156082,5.51938294 6.25938315,5.51938294 Z" id="Shape"></path>
                <path d="M10.3568784,7 L3.2599274,7 C3.11647913,7 3,7.11618875 3,7.25963702 C3,7.40319419 3.11647913,7.51920145 3.2599274,7.51920145 L10.3568784,7.51920145 C10.5004356,7.51920145 10.6168421,7.40319419 10.6168421,7.25963702 C10.6168421,7.11622505 10.5006534,7 10.3568784,7 Z" id="Shape"></path>
                <path d="M4.91923775,6.07865699 L5.15974592,5.10090744 C5.22127042,4.86355717 5.2615608,4.6630853 5.29872958,4.44101633 L5.30475499,4.44101633 C5.3292559,4.66602541 5.36627949,4.86355717 5.41865699,5.10090744 L5.63484574,6.07865699 L6.04217786,6.07865699 L6.5999637,4 L6.21444646,4 L5.99862069,4.94061706 C5.9431216,5.19364791 5.89350272,5.4308167 5.85669691,5.65938294 L5.85027223,5.65938294 C5.81963702,5.43419238 5.77637024,5.20286751 5.72402904,4.95611615 L5.51738657,4.00021779 L5.11956443,4.00021779 L4.89473684,4.94083485 C4.83568058,5.20290381 4.77673321,5.44990926 4.74323049,5.66860254 L4.73749546,5.66860254 C4.70359347,5.46206897 4.65404719,5.19666062 4.6014882,4.94381125 L4.40406534,4.00021779 L4,4.00021779 L4.50896552,6.07887477 L4.91923775,6.07887477 L4.91923775,6.07865699 Z" id="Shape"></path>
                <path d="M10.3568784,9 L3.2599274,9 C3.11647913,9 3,9.11618875 3,9.25974592 C3,9.40319419 3.11647913,9.51938294 3.2599274,9.51938294 L10.3568784,9.51938294 C10.5004356,9.51938294 10.6168421,9.40319419 10.6168421,9.25974592 C10.6168421,9.11618875 10.5006534,9 10.3568784,9 Z" id="Shape"></path>
                <path d="M10.3568784,11 L3.2599274,11 C3.11647913,11 3,11.1163702 3,11.2599274 C3,11.4033031 3.11647913,11.5194918 3.2599274,11.5194918 L10.3568784,11.5194918 C10.5004356,11.5194918 10.6168421,11.4033031 10.6168421,11.2599274 C10.6168421,11.1163702 10.5006534,11 10.3568784,11 Z" id="Shape"></path>
            </g>
        </g>
    </g>
</svg>