<?xml version="1.0" encoding="UTF-8"?>
<svg width="15px" height="20px" viewBox="0 0 15 20" version="1.1" xmlns="http://www.w3.org/2000/svg" xmlns:xlink="http://www.w3.org/1999/xlink">
    <!-- Generator: sketchtool 49 (51002) - http://www.bohemiancoding.com/sketch -->
    <title>DC635E2B-51D2-4CC3-96FC-8326628373D8</title>
    <desc>Created with sketchtool.</desc>
    <defs></defs>
    <g id="Page-1" stroke="none" stroke-width="1" fill="none" fill-rule="evenodd">
        <g id="Icons" transform="translate(-176.000000, -503.000000)" fill="#AEAFB1" fill-rule="nonzero">
            <g id="Group-5" transform="translate(176.000000, 503.000000)">
                <path d="M6.89631682,15 C6.66570471,15 6.51676408,15.0207003 6.42857143,15.0412237 L6.42857143,18.074439 C6.51693845,18.0951747 6.65928816,18.0951747 6.78789809,18.0951747 C7.72310989,18.1018625 8.33327473,17.5794007 8.33327473,16.4719162 C8.33990052,15.5088739 7.78420658,15 6.89631682,15 Z" id="Shape"></path>
                <path d="M2.79314643,15 C2.59048211,15 2.45310653,15.0203951 2.38095238,15.0407902 L2.38095238,16.4011435 C2.46613063,16.4215386 2.57086184,16.4285714 2.71422783,16.4285714 C3.24451373,16.4285714 3.57142857,16.1482091 3.57142857,15.6766251 C3.57146223,15.2529344 3.29001392,15 2.79314643,15 Z" id="Shape"></path>
                <path d="M14.5199569,4.79272043 C14.5187938,4.70099963 14.4896808,4.61040446 14.4266209,4.53879979 L10.5665902,0.134131684 C10.5658269,0.132897121 10.5643367,0.132497703 10.5635371,0.131372072 C10.5405303,0.105700415 10.5141069,0.0845312835 10.4857208,0.0658675894 C10.4772886,0.0604209861 10.4684566,0.0555190431 10.4596245,0.0505444788 C10.4350911,0.0372547667 10.4093947,0.0262163173 10.382208,0.0181553444 C10.3753023,0.0160493244 10.3683966,0.013071848 10.3611275,0.0111836921 C10.3320145,0.00413941852 10.3017385,0 10.2714261,0 L0.78506882,0 C0.352263287,0 0,0.351959506 0,0.784347188 L0,19.2156528 C0,19.648222 0.352263287,20 0.78506882,20 L13.7387044,20 C14.1715099,20 14.5238095,19.648222 14.5238095,19.2156528 L14.5238095,4.83665637 C14.5237732,4.82191423 14.5214834,4.80746257 14.5199569,4.79272043 Z M4.27648067,16.8435481 C3.90924292,17.1893348 3.36521931,17.3448535 2.72927722,17.3448535 C2.5881829,17.3448535 2.46064557,17.3375914 2.36211216,17.3237933 L2.36211216,19.0245497 L1.29536355,19.0245497 L1.29536355,14.3309211 C1.62723686,14.2746395 2.09377127,14.2321197 2.75090295,14.2321197 C3.41483129,14.2321197 3.88823506,14.3592434 4.20604255,14.6131641 C4.5100023,14.8532504 4.71433827,15.2484922 4.71433827,15.7141768 C4.71433827,16.1802245 4.55928717,16.5754663 4.27648067,16.8435481 Z M8.8193759,18.4600637 C8.31834934,18.8763294 7.55534241,19.0739322 6.62307318,19.0739322 C6.06483837,19.0739322 5.66943264,19.0387108 5.40051022,19.0034895 L5.40051022,14.3309211 C5.79620672,14.2677405 6.31217139,14.2321197 6.85601328,14.2321197 C7.75982376,14.2321197 8.34633559,14.3945011 8.80578258,14.7402878 C9.30044863,15.1073526 9.61135042,15.6931166 9.61135042,16.5329465 C9.61095061,17.4436549 9.27896827,18.0717209 8.8193759,18.4600637 Z M13.2288458,15.1497271 L11.3987995,15.1497271 L11.3987995,16.2365787 L13.1084686,16.2365787 L13.1084686,17.1120294 L11.3987995,17.1120294 L11.3987995,19.0245497 L10.3182031,19.0245497 L10.3182031,14.2677405 L13.2288458,14.2677405 L13.2288458,15.1497271 Z M0.78506882,13.3170177 L0.78506882,0.784347188 L9.87889169,0.784347188 L9.87889169,4.79722296 C9.87889169,5.01367097 10.0544782,5.1893784 10.2714261,5.1893784 L13.7387044,5.1893784 L13.7391042,13.3170177 L0.78506882,13.3170177 Z" id="Shape"></path>
                <path d="M11.2387563,8.36784695 C11.2160388,8.36570159 10.6698485,8.31519455 9.83145226,8.31519455 C9.56878278,8.31519455 9.3042112,8.32039434 9.04301316,8.33035757 C7.38735923,7.07149965 6.03126837,5.81165995 5.30527563,5.10561592 C5.31851856,5.02787362 5.32763429,4.96642158 5.33186916,4.9192235 C5.42762024,3.89508331 5.32117432,3.20369323 5.01655094,2.86421612 C4.81708148,2.64237059 4.52412193,2.56855541 4.21863722,2.65309743 C4.02892949,2.70345902 3.67775845,2.88992416 3.56531911,3.26950873 C3.44118006,3.68898259 3.64072129,4.19808917 4.1649477,4.78846517 C4.17327389,4.79741027 4.35117423,4.98627532 4.67442385,5.30629867 C4.46433134,6.3212756 3.91437272,8.5115502 3.64754015,9.56332563 C3.02081558,9.90262093 2.49863483,10.3113316 2.09438438,10.7801853 L2.06789851,10.8108749 L2.0507796,10.8477098 C2.00914869,10.9363244 1.81014578,11.3963057 1.95955049,11.7658179 C2.02777493,11.9338111 2.15561052,12.0565334 2.329276,12.1209671 L2.37582366,12.1336575 C2.37582366,12.1336575 2.41781345,12.1428571 2.49163653,12.1428571 C2.81499382,12.1428571 3.61315876,11.9706823 4.0412752,10.3722018 L4.14499358,9.96720012 C5.63936364,9.2312664 7.50733519,8.99385787 8.86130861,8.9277151 C9.55776495,9.45100292 10.2508119,9.93171066 10.9223255,10.3574024 L10.9442535,10.3702746 C10.9768046,10.3871467 11.2712715,10.5344498 11.6161261,10.5347771 C12.1089499,10.5347771 12.4689137,10.2283531 12.6029221,9.69433849 L12.6097051,9.65783088 C12.6471729,9.35264329 12.5714836,9.07756356 12.3909275,8.86251775 C12.0105789,8.40951799 11.302387,8.37002868 11.2387563,8.36784695 Z M2.50369514,11.5534993 C2.50068048,11.5498631 2.49924494,11.546445 2.49773761,11.5425906 C2.46558132,11.4641575 2.50416169,11.2739106 2.56093763,11.1345345 C2.80469376,10.8584003 3.09729442,10.6049197 3.43493542,10.3767108 C3.10612305,11.4551396 2.62794185,11.5483722 2.50369514,11.5534993 Z M4.59141326,4.38837235 C4.08645909,3.81886822 4.09403161,3.53651606 4.12119937,3.44146538 C4.16577314,3.28259911 4.36696526,3.22256519 4.36868792,3.22201976 C4.47003764,3.19409362 4.53155089,3.1995843 4.58631707,3.26049092 C4.71016901,3.39833986 4.81654315,3.81435931 4.77451747,4.57745557 C4.65529517,4.45607868 4.59141326,4.38837235 4.59141326,4.38837235 Z M4.33050233,9.23810249 L4.33922329,9.2043584 L4.33807485,9.20475839 C4.59091082,8.20141735 4.95554013,6.73227707 5.16520198,5.78856998 L5.1727745,5.79587877 L5.17352817,5.79136986 C5.85182481,6.43854356 6.89187967,7.38515962 8.13718208,8.36970142 L8.12318548,8.37028322 L8.1437856,8.38602803 C6.9706554,8.48642395 5.56948832,8.7207417 4.33050233,9.23810249 Z M12.0348038,9.56725274 C11.9454768,9.89982104 11.7736417,9.94527374 11.616162,9.94527374 C11.4333449,9.94527374 11.2573467,9.86818597 11.2172231,9.84956854 C10.759965,9.55918035 10.2921556,9.24275684 9.82011143,8.90422515 C9.82387974,8.90422515 9.82728917,8.90422515 9.83145226,8.90422515 C10.6407068,8.90422515 11.1797194,8.95400494 11.2008937,8.95553216 C11.3360506,8.96062286 11.7637723,9.02462026 11.9480967,9.24417497 C12.0203766,9.3302442 12.0480468,9.43311274 12.0348038,9.56725274 Z" id="Shape"></path>
            </g>
        </g>
    </g>
</svg>