<?xml version="1.0" encoding="UTF-8"?>
<svg width="30px" height="40px" viewBox="0 0 30 40" version="1.1" xmlns="http://www.w3.org/2000/svg" xmlns:xlink="http://www.w3.org/1999/xlink">
    <!-- Generator: sketchtool 49.3 (51167) - http://www.bohemiancoding.com/sketch -->
    <title>5D3F1C55-6D59-43F6-A800-091D50B2A2CE</title>
    <desc>Created with sketchtool.</desc>
    <defs>
        <path d="M30,8.75 L30,36.25 C30,38.3210938 28.3210937,40 26.25,40 L3.75,40 C1.67890625,40 0,38.3210938 0,36.25 L0,8.75 C0,6.67890625 1.67890625,5 3.75,5 L10,5 C10,2.24296875 12.2429688,0 15,0 C17.7570313,0 20,2.24296875 20,5 L26.25,5 C28.3210937,5 30,6.67890625 30,8.75 Z M15,3.125 C13.9644531,3.125 13.125,3.96445312 13.125,5 C13.125,6.03554687 13.9644531,6.875 15,6.875 C16.0355469,6.875 16.875,6.03554687 16.875,5 C16.875,3.96445313 16.0355469,3.125 15,3.125 Z M22.5,12.03125 L22.5,10.46875 C22.5,10.2098665 22.2901335,10 22.03125,10 L7.96875,10 C7.70986652,10 7.5,10.2098665 7.5,10.46875 L7.5,12.03125 C7.5,12.2901335 7.70986652,12.5 7.96875,12.5 L22.03125,12.5 C22.2901335,12.5 22.5,12.2901335 22.5,12.03125 Z" id="path-1"></path>
    </defs>
    <g id="Page-1" stroke="none" stroke-width="1" fill="none" fill-rule="evenodd">
        <g id="09-Knowledge-management-option-2-with-search-result" transform="translate(-787.000000, -314.000000)">
            <g id="Group-4" transform="translate(787.000000, 314.000000)">
                <mask id="mask-2" fill="white">
                    <use xlink:href="#path-1"></use>
                </mask>
                <use id="clipboard" fill="#0060D6" fill-rule="nonzero" xlink:href="#path-1"></use>
            </g>
        </g>
    </g>
</svg>