<?xml version="1.0" encoding="UTF-8"?>
<svg width="15px" height="20px" viewBox="0 0 15 20" version="1.1" xmlns="http://www.w3.org/2000/svg" xmlns:xlink="http://www.w3.org/1999/xlink">
    <!-- Generator: sketchtool 49 (51002) - http://www.bohemiancoding.com/sketch -->
    <title>DF266215-2BBD-47AD-8FB8-3C0E402564F4</title>
    <desc>Created with sketchtool.</desc>
    <defs></defs>
    <g id="Page-1" stroke="none" stroke-width="1" fill="none" fill-rule="evenodd">
        <g id="Icons" transform="translate(-242.000000, -503.000000)" fill="#0060D6" fill-rule="nonzero">
            <g id="Group-2" transform="translate(242.000000, 503.000000)">
                <path d="M7.46774539,15 C7.23713328,15 7.08819266,15.0207003 7,15.0412237 L7,18.074439 C7.08836702,18.0951747 7.23071673,18.0951747 7.35932666,18.0951747 C8.29453846,18.1018625 8.9047033,17.5794007 8.9047033,16.4719162 C8.91132909,15.5088739 8.35563515,15 7.46774539,15 Z" id="Shape"></path>
                <path d="M3.41219405,15 C3.20952973,15 3.07215415,15.0203951 3,15.0407902 L3,16.4011435 C3.08517824,16.4215386 3.18990946,16.4285714 3.33327545,16.4285714 C3.86356135,16.4285714 4.19047619,16.1482091 4.19047619,15.6766251 C4.19050984,15.2529344 3.90906154,15 3.41219405,15 Z" id="Shape"></path>
                <path d="M14.5199569,4.79272043 C14.5187938,4.70099963 14.4896808,4.61040446 14.4266209,4.53879979 L10.5665902,0.134131684 C10.5658269,0.132897121 10.5643367,0.132497703 10.5635371,0.131372072 C10.5405303,0.105700415 10.5141069,0.0845312835 10.4857208,0.0658675894 C10.4772886,0.0604209861 10.4684566,0.0555190431 10.4596245,0.0505444788 C10.4350911,0.0372547667 10.4093947,0.0262163173 10.382208,0.0181553444 C10.3753023,0.0160493244 10.3683966,0.013071848 10.3611275,0.0111836921 C10.3320145,0.00413941852 10.3017385,0 10.2714261,0 L0.78506882,0 C0.352263287,0 0,0.351959506 0,0.784347188 L0,19.2156528 C0,19.648222 0.352263287,20 0.78506882,20 L13.7387044,20 C14.1715099,20 14.5238095,19.648222 14.5238095,19.2156528 L14.5238095,4.83665637 C14.5237732,4.82191423 14.5214834,4.80746257 14.5199569,4.79272043 Z M4.27648067,16.8435481 C3.90924292,17.1893348 3.36521931,17.3448535 2.72927722,17.3448535 C2.5881829,17.3448535 2.46064557,17.3375914 2.36211216,17.3237933 L2.36211216,19.0245497 L1.29536355,19.0245497 L1.29536355,14.3309211 C1.62723686,14.2746395 2.09377127,14.2321197 2.75090295,14.2321197 C3.41483129,14.2321197 3.88823506,14.3592434 4.20604255,14.6131641 C4.5100023,14.8532504 4.71433827,15.2484922 4.71433827,15.7141768 C4.71433827,16.1802245 4.55928717,16.5754663 4.27648067,16.8435481 Z M8.8193759,18.4600637 C8.31834934,18.8763294 7.55534241,19.0739322 6.62307318,19.0739322 C6.06483837,19.0739322 5.66943264,19.0387108 5.40051022,19.0034895 L5.40051022,14.3309211 C5.79620672,14.2677405 6.31217139,14.2321197 6.85601328,14.2321197 C7.75982376,14.2321197 8.34633559,14.3945011 8.80578258,14.7402878 C9.30044863,15.1073526 9.61135042,15.6931166 9.61135042,16.5329465 C9.61095061,17.4436549 9.27896827,18.0717209 8.8193759,18.4600637 Z M13.2288458,15.1497271 L11.3987995,15.1497271 L11.3987995,16.2365787 L13.1084686,16.2365787 L13.1084686,17.1120294 L11.3987995,17.1120294 L11.3987995,19.0245497 L10.3182031,19.0245497 L10.3182031,14.2677405 L13.2288458,14.2677405 L13.2288458,15.1497271 Z M0.78506882,13.3170177 L0.78506882,0.784347188 L9.87889169,0.784347188 L9.87889169,4.79722296 C9.87889169,5.01367097 10.0544782,5.1893784 10.2714261,5.1893784 L13.7387044,5.1893784 L13.7391042,13.3170177 L0.78506882,13.3170177 Z" id="Shape"></path>
                <path d="M11.3339944,8.74879933 C11.3112768,8.74665397 10.7650865,8.69614693 9.92669035,8.69614693 C9.66402087,8.69614693 9.39944929,8.70134672 9.13825125,8.71130995 C7.48259732,7.45245203 6.12650647,6.19261233 5.40051372,5.4865683 C5.41375665,5.40882601 5.42287239,5.34737396 5.42710726,5.30017588 C5.52285834,4.27603569 5.41641242,3.58464561 5.11178904,3.2451685 C4.91231958,3.02332297 4.61936002,2.94950779 4.31387531,3.03404981 C4.12416758,3.0844114 3.77299654,3.27087654 3.66055721,3.65046112 C3.53641815,4.06993497 3.73595939,4.57904155 4.2601858,5.16941756 C4.26851198,5.17836265 4.44641232,5.3672277 4.76966195,5.68725105 C4.55956943,6.70222798 4.00961082,8.89250258 3.74277825,9.94427801 C3.11605368,10.2835733 2.59387292,10.692284 2.18962248,11.1611376 L2.16313661,11.1918273 L2.14601769,11.2286622 C2.10438679,11.3172767 1.90538388,11.7772581 2.05478859,12.1467703 C2.12301303,12.3147635 2.25084862,12.4374858 2.42451409,12.5019195 L2.47106175,12.5146099 C2.47106175,12.5146099 2.51305154,12.5238095 2.58687462,12.5238095 C2.91023191,12.5238095 3.70839686,12.3516347 4.1365133,10.7531542 L4.24023168,10.3481525 C5.73460174,9.61221878 7.60257328,9.37481025 8.9565467,9.30866749 C9.65300304,9.83195531 10.3460499,10.312663 11.0175636,10.7383548 L11.0394916,10.751227 C11.0720427,10.7680991 11.3665096,10.9154022 11.7113642,10.9157294 C12.204188,10.9157294 12.5641518,10.6093055 12.6981602,10.0752909 L12.7049432,10.0387833 C12.742411,9.73359567 12.6667217,9.45851594 12.4861656,9.24347014 C12.105817,8.79047037 11.3976251,8.75098106 11.3339944,8.74879933 Z M2.59893323,11.9344517 C2.59591858,11.9308154 2.59448303,11.9273974 2.5929757,11.923543 C2.56081942,11.8451098 2.59939978,11.654863 2.65617573,11.5154869 C2.89993185,11.2393526 3.19253252,10.985872 3.53017352,10.7576631 C3.20136114,11.836092 2.72317995,11.9293246 2.59893323,11.9344517 Z M4.68665136,4.76932473 C4.18169719,4.1998206 4.18926971,3.91746844 4.21643746,3.82241776 C4.26101124,3.66355149 4.46220336,3.60351757 4.46392602,3.60297214 C4.56527574,3.575046 4.62678899,3.58053669 4.68155516,3.6414433 C4.80540711,3.77929224 4.91178125,4.1953117 4.86975557,4.95840795 C4.75053327,4.83703107 4.68665136,4.76932473 4.68665136,4.76932473 Z M4.42574043,9.61905487 L4.43446138,9.58531079 L4.43331294,9.58571077 C4.68614892,8.58236973 5.05077823,7.11322945 5.26044008,6.16952236 L5.2680126,6.17683115 L5.26876626,6.17232224 C5.94706291,6.81949594 6.98711777,7.766112 8.23242017,8.7506538 L8.21842357,8.7512356 L8.23902369,8.76698041 C7.06589349,8.86737633 5.66472641,9.10169408 4.42574043,9.61905487 Z M12.1300419,9.94820513 C12.0407149,10.2807734 11.8688798,10.3262261 11.7114001,10.3262261 C11.528583,10.3262261 11.3525848,10.2491383 11.3124612,10.2305209 C10.8552031,9.94013273 10.3873937,9.62370922 9.91534952,9.28517753 C9.91911784,9.28517753 9.92252726,9.28517753 9.92669035,9.28517753 C10.7359449,9.28517753 11.2749575,9.33495733 11.2961318,9.33648454 C11.4312887,9.34157524 11.8590104,9.40557264 12.0433348,9.62512735 C12.1156146,9.71119658 12.1432848,9.81406512 12.1300419,9.94820513 Z" id="Shape"></path>
            </g>
        </g>
    </g>
</svg>