<?xml version="1.0" encoding="UTF-8"?>
<svg width="24px" height="24px" viewBox="0 0 24 24" version="1.1" xmlns="http://www.w3.org/2000/svg" xmlns:xlink="http://www.w3.org/1999/xlink">
    <!-- Generator: sketchtool 49 (51002) - http://www.bohemiancoding.com/sketch -->
    <title>D0ECB405-1C11-46E4-8D06-A3E93713679E</title>
    <desc>Created with sketchtool.</desc>
    <defs>
        <path d="M8.83333333,18.5714453 L9.66666667,18.5714453 L9.66666667,12.9285547 L8.83333333,12.9285547 C8.37308333,12.9285547 8,12.5787891 8,12.1473047 L8,10.28125 C8,9.84976562 8.37308333,9.5 8.83333333,9.5 L13.5,9.5 C13.96025,9.5 14.3333333,9.84976562 14.3333333,10.28125 L14.3333333,18.5714453 L15.1666667,18.5714453 C15.6269167,18.5714453 16,18.9212109 16,19.3526953 L16,21.21875 C16,21.6502344 15.6269167,22 15.1666667,22 L8.83333333,22 C8.37308333,22 8,21.6502344 8,21.21875 L8,19.3526953 C8,18.9212109 8.37308333,18.5714453 8.83333333,18.5714453 Z M12,2 C10.343125,2 9,3.25917969 9,4.8125 C9,6.36582031 10.343125,7.625 12,7.625 C13.656875,7.625 15,6.36582031 15,4.8125 C15,3.25917969 13.6568333,2 12,2 Z" id="path-1"></path>
    </defs>
    <g id="Symbols" stroke="none" stroke-width="1" fill="none" fill-rule="evenodd">
        <g id="Icons/Solid/info">
            <mask id="mask-2" fill="white">
                <use xlink:href="#path-1"></use>
            </mask>
            <use id="info" fill="#000000" fill-rule="nonzero" xlink:href="#path-1"></use>
            <g id="Colors/Primary" mask="url(#mask-2)" fill="#5E6064">
                <rect id="Rectangle" x="0" y="0" width="24" height="24"></rect>
            </g>
        </g>
    </g>
</svg>