<?xml version="1.0" encoding="UTF-8"?>
<svg width="14px" height="20px" viewBox="0 0 14 20" version="1.1" xmlns="http://www.w3.org/2000/svg" xmlns:xlink="http://www.w3.org/1999/xlink">
    <!-- Generator: sketchtool 49 (51002) - http://www.bohemiancoding.com/sketch -->
    <title>1971326B-E4A1-42BB-A75B-27741628811A</title>
    <desc>Created with sketchtool.</desc>
    <defs>
        <path d="M10.125,16.71875 L10.125,17.8125 C10.125,18.2206641 9.8640625,18.5677344 9.5,18.6964453 L9.5,19.0625 C9.5,19.5802734 9.08027344,20 8.5625,20 L5.4375,20 C4.91972656,20 4.5,19.5802734 4.5,19.0625 L4.5,18.6964453 C4.1359375,18.5677344 3.875,18.2206641 3.875,17.8125 L3.875,16.71875 C3.875,16.4598828 4.08488281,16.25 4.34375,16.25 L9.65625,16.25 C9.91511719,16.25 10.125,16.4598828 10.125,16.71875 Z M4.53488281,15 C4.14789063,15 3.79949219,14.7625781 3.66082031,14.4012891 C2.14441406,10.4508203 0.125,10.8488672 0.125,6.875 C0.125,3.07824219 3.20332031,0 7,0 C10.7966797,0 13.875,3.07824219 13.875,6.875 C13.875,10.8488672 11.8555859,10.4508203 10.3392188,14.4012891 C10.2005469,14.7625781 9.85210937,15 9.46515625,15 L4.53488281,15 Z M3.875,6.875 C3.875,5.151875 5.276875,3.75 7,3.75 C7.34519531,3.75 7.625,3.47015625 7.625,3.125 C7.625,2.77984375 7.34519531,2.5 7,2.5 C4.58761719,2.5 2.625,4.46261719 2.625,6.875 C2.625,7.22015625 2.90484375,7.5 3.25,7.5 C3.59515625,7.5 3.875,7.22015625 3.875,6.875 Z" id="path-1"></path>
    </defs>
    <g id="Page-1" stroke="none" stroke-width="1" fill="none" fill-rule="evenodd">
        <g id="Icons" transform="translate(-423.000000, -460.000000)">
            <g id="Icons/Solid/lightbulb" transform="translate(423.000000, 460.000000)">
                <mask id="mask-2" fill="white">
                    <use xlink:href="#path-1"></use>
                </mask>
                <use id="lightbulb" fill="#F5A623" fill-rule="nonzero" xlink:href="#path-1"></use>
            </g>
        </g>
    </g>
</svg>