<?xml version="1.0" encoding="UTF-8"?>
<svg width="20px" height="10px" viewBox="0 0 20 10" version="1.1" xmlns="http://www.w3.org/2000/svg" xmlns:xlink="http://www.w3.org/1999/xlink">
    <!-- Generator: sketchtool 49.3 (51167) - http://www.bohemiancoding.com/sketch -->
    <title>2A5BAA9F-80E8-4FE6-9372-42A1870D445E</title>
    <desc>Created with sketchtool.</desc>
    <defs>
        <path d="M20,0.75 L20,9.25 C20,9.66421875 19.6642187,10 19.25,10 L0.75,10 C0.33578125,10 0,9.66421875 0,9.25 L0,0.75 C0,0.33578125 0.33578125,0 0.75,0 L19.25,0 C19.6642187,0 20,0.33578125 20,0.75 Z M3,9 C3,7.8954375 2.1045625,7 1,7 L1,9 L3,9 Z M3,1 L1,1 L1,3 C2.1045625,3 3,2.1045625 3,1 Z M12.5,5 C12.5,3.34309375 11.38075,2 10,2 C8.61925,2 7.5,3.34309375 7.5,5 C7.5,6.656625 8.6191875,8 10,8 C11.3802188,8 12.5,6.65721875 12.5,5 Z M19,7 C17.8954375,7 17,7.8954375 17,9 L19,9 L19,7 Z M19,1 L17,1 C17,2.1045625 17.8954375,3 19,3 L19,1 Z M8.67384375,6.36021875 C8.67384375,6.1265625 8.79625,5.99859375 9.0355,5.99859375 L9.50834375,5.99859375 L9.50834375,4.75240625 C9.50834375,4.5910625 9.52503125,4.4241875 9.52503125,4.4241875 L9.51390625,4.4241875 C9.51390625,4.4241875 9.4583125,4.507625 9.42490625,4.541 C9.2858125,4.67453125 9.09665625,4.68009375 8.93534375,4.507625 L8.76290625,4.31290625 C8.59596875,4.146 8.60715625,3.96240625 8.77959375,3.8010625 L9.45834375,3.17796875 C9.597375,3.05 9.71978125,2.9999375 9.90896875,2.9999375 L10.28725,2.9999375 C10.5265,2.9999375 10.6544062,3.1223125 10.6544062,3.3615625 L10.6544062,5.9985625 L11.1384062,5.9985625 C11.377625,5.9985625 11.5000312,6.1265 11.5000312,6.3601875 L11.5000312,6.63834375 C11.5000312,6.872 11.377625,6.99996875 11.1384062,6.99996875 L9.0355,6.99996875 C8.79625,6.99996875 8.67384375,6.872 8.67384375,6.63834375 L8.67384375,6.36021875 Z" id="path-1"></path>
    </defs>
    <g id="Page-1" stroke="none" stroke-width="1" fill="none" fill-rule="evenodd">
        <g id="05-Knowledge-management-Search-Results-Bank-Billing-Changes" transform="translate(-172.000000, -623.000000)">
            <g id="Icons/Solid/money-bill-alt" transform="translate(172.000000, 623.000000)">
                <mask id="mask-2" fill="white">
                    <use xlink:href="#path-1"></use>
                </mask>
                <use id="money-bill-alt" fill="#0060D6" fill-rule="nonzero" xlink:href="#path-1"></use>
            </g>
        </g>
    </g>
</svg>