<?xml version="1.0" encoding="UTF-8"?>
<svg width="24px" height="24px" viewBox="0 0 24 24" version="1.1" xmlns="http://www.w3.org/2000/svg" xmlns:xlink="http://www.w3.org/1999/xlink">
    <!-- Generator: sketchtool 49 (51002) - http://www.bohemiancoding.com/sketch -->
    <title>CF88B4D3-AAE6-42E5-B6C4-F74FBFEC539A</title>
    <desc>Created with sketchtool.</desc>
    <defs>
        <path d="M19.3745313,13.3710938 L21.0392187,14.3319922 C21.2293359,14.4417188 21.3175781,14.6686328 21.2524609,14.8782813 C20.8200391,16.2705469 20.0817578,17.5283594 19.1161719,18.5730469 C18.9673402,18.7341602 18.7267723,18.770719 18.5367969,18.6610937 L16.8733594,17.7003516 C16.1734791,18.3000221 15.3688465,18.7652494 14.4999609,19.0726172 L14.4999609,20.9937891 C14.4999641,21.2132626 14.3478061,21.4034074 14.1336719,21.4515234 C12.7682031,21.7581641 11.3016797,21.7740234 9.86730469,21.4517969 C9.65285156,21.4036328 9.5,21.2136719 9.5,20.9938672 L9.5,19.0726172 C8.63110611,18.7652674 7.82647037,18.3000383 7.12660156,17.7003516 L5.46316406,18.6610938 C5.27318864,18.770719 5.0326207,18.7341602 4.88378906,18.5730469 C3.91824219,17.5283594 3.17992187,16.2705469 2.7475,14.8782813 C2.68238281,14.6686719 2.770625,14.4417578 2.96074219,14.3319922 L4.62546875,13.3710938 C4.45826244,12.464691 4.45826244,11.5353481 4.62546875,10.6289453 L2.96078125,9.66804688 C2.77066406,9.55832031 2.68242187,9.33140625 2.74753906,9.12175781 C3.17996094,7.72949219 3.91824219,6.47167969 4.88382812,5.42699219 C5.03265977,5.2658789 5.2732277,5.2293201 5.46320312,5.33894531 L7.12664062,6.2996875 C7.82652089,5.70001695 8.63115347,5.2347897 9.50003906,4.92742188 L9.50003906,3.00621094 C9.50003586,2.78673743 9.6521939,2.59659261 9.86632812,2.54847656 C11.2317969,2.24183594 12.6983203,2.22597656 14.1326953,2.54820312 C14.3471484,2.59636719 14.5,2.78632812 14.5,3.00613281 L14.5,4.92738281 C15.3688939,5.23473265 16.1735296,5.69996172 16.8733984,6.29964844 L18.5368359,5.33890625 C18.7268114,5.22928104 18.9673793,5.26583984 19.1162109,5.42695312 C20.0817578,6.47164062 20.8200781,7.72945312 21.2525,9.12171875 C21.3176172,9.33132812 21.229375,9.55824219 21.0392578,9.66800781 L19.3745313,10.6289062 C19.541738,11.5353221 19.541738,12.4646779 19.3745313,13.3710938 Z M15.125,12 C15.125,10.276875 13.723125,8.875 12,8.875 C10.276875,8.875 8.875,10.276875 8.875,12 C8.875,13.723125 10.276875,15.125 12,15.125 C13.723125,15.125 15.125,13.723125 15.125,12 Z" id="path-1"></path>
    </defs>
    <g id="Symbols" stroke="none" stroke-width="1" fill="none" fill-rule="evenodd">
        <g id="Icons/Solid/cog">
            <mask id="mask-2" fill="white">
                <use xlink:href="#path-1"></use>
            </mask>
            <use id="cog" fill="#000000" fill-rule="nonzero" xlink:href="#path-1"></use>
            <g id="Colors/Primary" mask="url(#mask-2)" fill="#074497">
                <rect id="Rectangle" x="0" y="0" width="24" height="24"></rect>
            </g>
        </g>
    </g>
</svg>