<?xml version="1.0" encoding="UTF-8"?>
<svg width="20px" height="16px" viewBox="0 0 20 16" version="1.1" xmlns="http://www.w3.org/2000/svg" xmlns:xlink="http://www.w3.org/1999/xlink">
    <!-- Generator: sketchtool 49.3 (51167) - http://www.bohemiancoding.com/sketch -->
    <title>3AF0E2C0-B749-4F0D-9D9D-2B73E102821A</title>
    <desc>Created with sketchtool.</desc>
    <defs>
        <path d="M20,6.5937998 L20,7.1562998 C20,7.6222959 19.6269097,8.0000498 19.1666667,8.0000498 L18.8888889,8.0000498 L17.9821875,14.4261904 C17.8648958,15.2575303 17.1617014,15.8750498 16.3322917,15.8750498 L3.66770833,15.8750498 C2.83829861,15.8750498 2.13510417,15.2575303 2.01777778,14.4261904 L1.11111111,8.0000498 L0.833333333,8.0000498 C0.373090278,8.0000498 0,7.6222959 0,7.1562998 L0,6.5937998 C0,6.12780371 0.373090278,5.7500498 0.833333333,5.7500498 L3.1715625,5.7500498 L6.87920139,0.588374021 C7.24013889,0.0859208961 7.935,-0.0252080102 8.43131944,0.340241209 C8.92760417,0.705690427 9.03732639,1.40927246 8.67638889,1.91176074 L5.91934028,5.7500498 L14.0806597,5.7500498 L11.3236111,1.91172558 C10.9626736,1.40927246 11.0724306,0.705655271 11.5687153,0.340206052 C12.0649306,-0.0252431664 12.7598958,0.0858505836 13.1208333,0.588338865 L16.8284375,5.7500498 L19.1666667,5.7500498 C19.6269097,5.7500498 20,6.12780371 20,6.5937998 Z M10.8333333,12.7812998 L10.8333333,8.8437998 C10.8333333,8.37780371 10.4602431,8.0000498 10,8.0000498 C9.53975694,8.0000498 9.16666667,8.37780371 9.16666667,8.8437998 L9.16666667,12.7812998 C9.16666667,13.2472959 9.53975694,13.6250498 10,13.6250498 C10.4602431,13.6250498 10.8333333,13.2472959 10.8333333,12.7812998 Z M14.7222222,12.7812998 L14.7222222,8.8437998 C14.7222222,8.37780371 14.3491319,8.0000498 13.8888889,8.0000498 C13.4286458,8.0000498 13.0555556,8.37780371 13.0555556,8.8437998 L13.0555556,12.7812998 C13.0555556,13.2472959 13.4286458,13.6250498 13.8888889,13.6250498 C14.3491319,13.6250498 14.7222222,13.2472959 14.7222222,12.7812998 Z M6.94444444,12.7812998 L6.94444444,8.8437998 C6.94444444,8.37780371 6.57135417,8.0000498 6.11111111,8.0000498 C5.65086806,8.0000498 5.27777778,8.37780371 5.27777778,8.8437998 L5.27777778,12.7812998 C5.27777778,13.2472959 5.65086806,13.6250498 6.11111111,13.6250498 C6.57135417,13.6250498 6.94444444,13.2472959 6.94444444,12.7812998 Z" id="path-1"></path>
    </defs>
    <g id="Page-1" stroke="none" stroke-width="1" fill="none" fill-rule="evenodd">
        <g id="05-Knowledge-management-Search-Results-Bank-Billing-Changes" transform="translate(-172.000000, -653.000000)">
            <g id="Icons/Solid/shopping-basket" transform="translate(172.000000, 653.000000)">
                <mask id="mask-2" fill="white">
                    <use xlink:href="#path-1"></use>
                </mask>
                <use id="shopping-basket" fill="#AEAFB1" fill-rule="nonzero" xlink:href="#path-1"></use>
            </g>
        </g>
    </g>
</svg>