<?xml version="1.0" encoding="UTF-8"?>
<svg width="24px" height="24px" viewBox="0 0 24 24" version="1.1" xmlns="http://www.w3.org/2000/svg" xmlns:xlink="http://www.w3.org/1999/xlink">
    <!-- Generator: sketchtool 49 (51002) - http://www.bohemiancoding.com/sketch -->
    <title>47F9734B-F877-4F77-9051-803869024068</title>
    <desc>Created with sketchtool.</desc>
    <defs>
        <path d="M3,5.28125 L3,4.1875 C3,3.66796875 3.42991071,3.25 3.96428571,3.25 L8.46428571,3.25 L8.84196429,2.51953125 C9.00267857,2.19921875 9.33616071,2 9.70178571,2 L14.2941964,2 C14.6598214,2 14.9933036,2.19921875 15.1580357,2.51953125 L15.5357143,3.25 L20.0357143,3.25 C20.5700893,3.25 21,3.66796875 21,4.1875 L21,5.28125 C21,5.5390625 20.7830357,5.75 20.5178571,5.75 L3.48214286,5.75 C3.21696429,5.75 3,5.5390625 3,5.28125 Z M19.7142857,7.46875 L19.7142857,20.125 C19.7142857,21.1601562 18.8504464,22 17.7857143,22 L6.21428571,22 C5.14955357,22 4.28571429,21.1601562 4.28571429,20.125 L4.28571429,7.46875 C4.28571429,7.2109375 4.50267857,7 4.76785714,7 L19.2321429,7 C19.4973214,7 19.7142857,7.2109375 19.7142857,7.46875 Z M8.78571429,10.125 C8.78571429,9.78125 8.49642857,9.5 8.14285714,9.5 C7.78928571,9.5 7.5,9.78125 7.5,10.125 L7.5,18.875 C7.5,19.21875 7.78928571,19.5 8.14285714,19.5 C8.49642857,19.5 8.78571429,19.21875 8.78571429,18.875 L8.78571429,10.125 Z M12.6428571,10.125 C12.6428571,9.78125 12.3535714,9.5 12,9.5 C11.6464286,9.5 11.3571429,9.78125 11.3571429,10.125 L11.3571429,18.875 C11.3571429,19.21875 11.6464286,19.5 12,19.5 C12.3535714,19.5 12.6428571,19.21875 12.6428571,18.875 L12.6428571,10.125 Z M16.5,10.125 C16.5,9.78125 16.2107143,9.5 15.8571429,9.5 C15.5035714,9.5 15.2142857,9.78125 15.2142857,10.125 L15.2142857,18.875 C15.2142857,19.21875 15.5035714,19.5 15.8571429,19.5 C16.2107143,19.5 16.5,19.21875 16.5,18.875 L16.5,10.125 Z" id="path-1"></path>
    </defs>
    <g id="Symbols" stroke="none" stroke-width="1" fill="none" fill-rule="evenodd">
        <g id="Icons/Solid/trash-alt">
            <mask id="mask-2" fill="white">
                <use xlink:href="#path-1"></use>
            </mask>
            <use id="trash-alt" fill="#000000" fill-rule="nonzero" xlink:href="#path-1"></use>
            <g id="Colors/Primary" mask="url(#mask-2)" fill="#0060D6">
                <rect id="Rectangle" x="0" y="0" width="24" height="24"></rect>
            </g>
        </g>
    </g>
</svg>