<?xml version="1.0" encoding="UTF-8"?>
<svg width="24px" height="24px" viewBox="0 0 24 24" version="1.1" xmlns="http://www.w3.org/2000/svg" xmlns:xlink="http://www.w3.org/1999/xlink">
    <!-- Generator: sketchtool 49 (51002) - http://www.bohemiancoding.com/sketch -->
    <title>F3D654AB-C918-4252-B9C9-A26B74893A3E</title>
    <desc>Created with sketchtool.</desc>
    <defs>
        <path d="M9,5 C11.41625,5 13.375,6.95875 13.375,9.375 C13.375,11.79125 11.41625,13.75 9,13.75 C6.58375,13.75 4.625,11.79125 4.625,9.375 C4.625,6.95875 6.58375,5 9,5 Z M14.0116563,14.1279063 L12.0616875,13.6404063 C10.0130312,15.1139688 7.52978125,14.785125 5.9383125,13.6404063 L3.98834375,14.1279063 C2.81978125,14.4200625 2,15.47 2,16.6745313 L2,17.6875 C2,18.412375 2.587625,19 3.3125,19 L14.6875,19 C15.412375,19 16,18.412375 16,17.6875 L16,16.6745313 C16,15.47 15.1802188,14.4200625 14.0116563,14.1279063 Z M21.625,11.0277813 L19.4722187,11.0277813 L19.4722187,8.875 C19.4722187,8.66790625 19.3043125,8.5 19.0972187,8.5 L17.9027813,8.5 C17.6956875,8.5 17.5277813,8.66790625 17.5277813,8.875 L17.5277187,11.0277188 L15.375,11.0277813 C15.1679062,11.0277813 15,11.1956875 15,11.4027813 L15,12.5972187 C15,12.8043125 15.1679062,12.9722187 15.375,12.9722187 L17.5277187,12.9722813 L17.5277813,15.125 C17.5277813,15.3320938 17.6956875,15.5 17.9027813,15.5 L19.0972187,15.5 C19.3043125,15.5 19.4722187,15.3320938 19.4722187,15.125 L19.4722812,12.9722813 L21.625,12.9722187 C21.8320937,12.9722187 22,12.8043125 22,12.5972187 L22,11.4027813 C22,11.1956875 21.8320937,11.0277813 21.625,11.0277813 Z" id="path-1"></path>
    </defs>
    <g id="Symbols" stroke="none" stroke-width="1" fill="none" fill-rule="evenodd">
        <g id="Icons/Solid/user-plus">
            <mask id="mask-2" fill="white">
                <use xlink:href="#path-1"></use>
            </mask>
            <use id="user-plus" fill="#000000" fill-rule="nonzero" xlink:href="#path-1"></use>
            <g id="Colors/Primary" mask="url(#mask-2)" fill="#FF1821">
                <rect id="Rectangle" x="0" y="0" width="24" height="24"></rect>
            </g>
        </g>
    </g>
</svg>