<?xml version="1.0" encoding="UTF-8"?>
<svg width="13px" height="14px" viewBox="0 0 13 14" version="1.1" xmlns="http://www.w3.org/2000/svg" xmlns:xlink="http://www.w3.org/1999/xlink">
    <!-- Generator: sketchtool 49 (51002) - http://www.bohemiancoding.com/sketch -->
    <title>B56FB738-2A6C-4EA5-8C4F-E2E90F186E8A</title>
    <desc>Created with sketchtool.</desc>
    <defs></defs>
    <g id="Page-1" stroke="none" stroke-width="1" fill="none" fill-rule="evenodd">
        <g id="Icons" transform="translate(-429.000000, -680.000000)" fill="#417505" fill-rule="nonzero">
            <g id="xls-file-format-symbol" transform="translate(429.000000, 680.000000)">
                <path d="M11.7090411,5.00773601 L11.3701173,5.00773601 L11.3701173,3.38569102 C11.3701173,3.37557484 11.3685029,3.36538242 11.3672729,3.3550629 C11.3667347,3.29073114 11.3459268,3.22744149 11.3014664,3.17734354 L8.57997946,0.0938923495 C8.57915944,0.0931044061 8.57836505,0.0928248133 8.57780128,0.0919606174 C8.5615803,0.0739904249 8.54266863,0.0590449182 8.52268068,0.0461073963 C8.51676117,0.0421676794 8.51079042,0.0388634008 8.50458903,0.0353811994 C8.48726614,0.026078384 8.46889261,0.0182243678 8.44998093,0.012607094 C8.44485582,0.011259965 8.44024322,0.00917572771 8.4351181,0.00782859871 C8.41456639,0.00302468587 8.39322029,0 8.37159231,0 L1.68349754,0 C1.37809198,0 1.1299852,0.246372102 1.1299852,0.549044029 L1.1299852,5.00760892 L0.791138267,5.00760892 C0.3542479,5.00760892 0,5.35882832 0,5.79232427 L0,9.87298135 C0,10.3060452 0.3542479,10.6576204 0.791138267,10.6576204 L1.13001082,10.6576204 L1.13001082,13.450956 C1.13001082,13.7536025 1.37811761,14 1.68352317,14 L10.8164768,14 C11.1216005,14 11.3699892,13.7536279 11.3699892,13.450956 L11.3699892,10.6576204 L11.708913,10.6576204 C12.1456752,10.6576204 12.5,10.3061723 12.5,9.87298135 L12.5,5.79245136 C12.4999744,5.35882832 12.1459059,5.00773601 11.7090411,5.00773601 Z M1.68349754,0.549044029 L8.09483614,0.549044029 L8.09483614,3.35793508 C8.09483614,3.50960147 8.21888953,3.63244439 8.37159231,3.63244439 L10.8164512,3.63244439 L10.8164512,5.00773601 L1.68349754,5.00773601 L1.68349754,0.549044029 Z M7.89416229,9.00654864 L7.89416229,9.8027273 L5.25337028,9.8027273 L5.25337028,5.60975016 L6.21330418,5.60975016 L6.21330418,9.00654864 L7.89416229,9.00654864 Z M1.09539068,9.80260021 L2.3184992,7.68130414 L1.13923603,5.60975016 L2.23685613,5.60975016 L2.60686376,6.37479235 C2.73240343,6.62973016 2.82652616,6.83525629 2.92692715,7.07158847 L2.9393043,7.07158847 C3.03991029,6.80396731 3.12127148,6.6173264 3.22782261,6.37479235 L3.58540183,5.60975016 L4.67674367,5.60975016 L3.48492396,7.65649663 L4.73957757,9.80270188 L3.63560232,9.80270188 L3.25303817,9.04378532 C3.0963378,8.75130583 2.99585993,8.53365553 2.87675228,8.29104522 L2.86419575,8.29104522 C2.77627441,8.53378262 2.66987704,8.75158542 2.53818723,9.04378532 L2.18683502,9.80270188 L1.09539068,9.80270188 L1.09539068,9.80260021 Z M10.8164768,13.3023397 L1.68349754,13.3023397 L1.68349754,10.6576204 L10.8164768,10.6576204 L10.8164768,13.3023397 Z M9.49322357,9.86517817 C9.01051468,9.86517817 8.53364843,9.74053061 8.29553562,9.60998618 L8.4897262,8.82613503 C8.74700693,8.95667945 9.14215325,9.08750347 9.54998421,9.08750347 C9.98918088,9.08750347 10.2210667,8.90706444 10.2210667,8.63336849 C10.2210667,8.37200005 10.0203928,8.22269749 9.512289,8.04225846 C8.80986646,7.79952106 8.35191187,7.41388632 8.35191187,6.80396731 C8.35191187,6.08846389 8.95406155,5.54112284 9.95163942,5.54112284 C10.4281213,5.54112284 10.7794735,5.64093747 11.0302966,5.75264751 L10.8170406,6.51794387 C10.6477324,6.43696362 10.3465295,6.31882295 9.93272775,6.31882295 C9.51882352,6.31882295 9.31814967,6.50533677 9.31814967,6.72329208 C9.31814967,6.99081156 9.55623685,7.10913016 10.1020615,7.31445295 C10.8484063,7.58817431 11.1997585,7.97368196 11.1997585,8.56476659 C11.1994254,9.26791709 10.6539082,9.86517817 9.49322357,9.86517817 Z" id="Shape"></path>
            </g>
        </g>
    </g>
</svg>