<?xml version="1.0" encoding="UTF-8"?>
<svg width="13px" height="14px" viewBox="0 0 13 14" version="1.1" xmlns="http://www.w3.org/2000/svg" xmlns:xlink="http://www.w3.org/1999/xlink">
    <!-- Generator: sketchtool 49 (51002) - http://www.bohemiancoding.com/sketch -->
    <title>CB319870-656F-4FDE-9564-05BD5F60382F</title>
    <desc>Created with sketchtool.</desc>
    <defs></defs>
    <g id="Page-1" stroke="none" stroke-width="1" fill="none" fill-rule="evenodd">
        <g id="Icons" transform="translate(-429.000000, -612.000000)" fill="#0060D6" fill-rule="nonzero">
            <g id="doc-file-format" transform="translate(429.000000, 612.000000)">
                <path d="M11.600861,5.0078079 L11.2651083,5.0078079 L11.2651083,3.38553797 C11.2651083,3.37542655 11.263476,3.36523853 11.2621497,3.35499944 C11.2616141,3.29057745 11.2411333,3.22733001 11.1970855,3.17720699 L8.50083669,0.0938880996 C8.50004602,0.0930965491 8.49920434,0.0928156763 8.49866873,0.0919730581 C8.48262586,0.0739972022 8.46387941,0.0590343449 8.44406174,0.0461141985 C8.43817,0.04218198 8.43227826,0.0388881087 8.42610596,0.035441034 C8.40896636,0.0260956317 8.39075552,0.0183077964 8.37200908,0.0126648076 C8.36693351,0.0112604438 8.36239356,0.00924326681 8.35731799,0.00786443695 C8.3369137,0.00301299857 8.31576975,0 8.29439625,0 L1.66797446,0 C1.36537879,0 1.11958357,0.246376468 1.11958357,0.549029621 L1.11958357,5.00765469 L0.783856434,5.00765469 C0.350979351,5.00765469 0,5.35882223 0,5.79231102 L0,9.87293244 C0,10.3060127 0.350979351,10.6576143 0.783856434,10.6576143 L1.11958357,10.6576143 L1.11958357,13.4509959 C1.11958357,13.7536746 1.36537879,14 1.66797446,14 L10.7166919,14 C11.019007,14 11.2651083,13.7536746 11.2651083,13.4509959 L11.2651083,10.6576398 L11.600861,10.6576398 C12.033585,10.6576398 12.3846154,10.3061914 12.3846154,9.87295797 L12.3846154,5.79246422 C12.3846409,5.35884777 12.033585,5.0078079 11.600861,5.0078079 Z M1.66797446,0.549029621 L8.02016255,0.549029621 L8.02016255,3.35791031 C8.02016255,3.50965819 8.1430474,3.63242512 8.29437074,3.63242512 L10.7166919,3.63242512 L10.7166919,5.00778236 L1.66797446,5.00778236 L1.66797446,0.549029621 Z M8.24789997,7.60960877 C8.24789997,8.85762852 7.49207393,9.6141465 6.38070308,9.6141465 C5.25262622,9.6141465 4.59262385,8.76151897 4.59262385,7.67742677 C4.59262385,6.53664933 5.32024095,5.68402181 6.44270663,5.68402181 C7.61018928,5.68402181 8.24789997,6.55914469 8.24789997,7.60960877 Z M0.841294519,9.53517019 L0.841294519,5.79713692 C1.15715298,5.74619682 1.5688351,5.71793081 2.00337004,5.71793081 C2.72529944,5.71793081 3.19337393,5.84787275 3.56003908,6.12445581 C3.95486215,6.4181721 4.2031824,6.88692318 4.2031824,7.55879633 C4.2031824,8.28727811 3.93813063,8.78978499 3.5715675,9.10035364 C3.17103123,9.43357086 2.56178453,9.59157455 1.81715535,9.59157455 C1.37129604,9.59160008 1.0555651,9.5633596 0.841294519,9.53517019 Z M10.7166919,13.3021844 L1.66797446,13.3021844 L1.66797446,10.6576398 L10.7166919,10.6576398 L10.7166919,13.3021844 Z M10.7581637,8.89720605 C11.0176553,8.89720605 11.3053813,8.84044422 11.4744819,8.77293262 L11.6043807,9.44485684 C11.4463495,9.52421616 11.0910342,9.60850351 10.6285964,9.60850351 C9.31435586,9.60850351 8.63741793,8.78981052 8.63741793,7.70556511 C8.63741793,6.4070904 9.56242106,5.68402181 10.7129171,5.68402181 C11.1584959,5.68402181 11.4972327,5.7743607 11.6496272,5.85351574 L11.4746349,6.53664933 C11.2998976,6.46331601 11.0573161,6.39542141 10.7526035,6.39542141 C10.0701309,6.39542141 9.5398233,6.80771707 9.5398233,7.65465054 C9.53969578,8.41704132 9.99101324,8.89720605 10.7581637,8.89720605 Z" id="Shape"></path>
                <path d="M3.23071733,7.61384325 C3.23646177,6.85990662 2.7650014,6.46153846 2.0121672,6.46153846 C1.81670012,6.46153846 1.68995843,6.47763095 1.61538462,6.49389385 L1.61538462,8.86837549 C1.68993243,8.88456536 1.8108517,8.88456536 1.92012612,8.88456536 C2.71332739,8.88982402 3.23071733,8.4805977 3.23071733,7.61384325 Z" id="Shape"></path>
                <path d="M5.38461538,7.81941035 C5.38461538,8.60245455 5.74310428,9.15384615 6.3327001,9.15384615 C6.92822977,9.15384615 7.26923077,8.57250247 7.26923077,7.79578656 C7.26923077,7.07800946 6.93400679,6.46153846 6.32692308,6.46153846 C5.73173322,6.46169935 5.38461538,7.04282851 5.38461538,7.81941035 Z" id="Shape"></path>
            </g>
        </g>
    </g>
</svg>