<?xml version="1.0" encoding="UTF-8"?>
<svg width="13px" height="14px" viewBox="0 0 13 14" version="1.1" xmlns="http://www.w3.org/2000/svg" xmlns:xlink="http://www.w3.org/1999/xlink">
    <!-- Generator: sketchtool 49 (51002) - http://www.bohemiancoding.com/sketch -->
    <title>A39E29EE-CFE9-4987-810C-B24FA05D205F</title>
    <desc>Created with sketchtool.</desc>
    <defs></defs>
    <g id="Page-1" stroke="none" stroke-width="1" fill="none" fill-rule="evenodd">
        <g id="Icons" transform="translate(-429.000000, -648.000000)" fill="#FF1821" fill-rule="nonzero">
            <g id="pdf-file-format-symbol" transform="translate(429.000000, 648.000000)">
                <path d="M3.28571429,7.18034829 C3.28571429,6.79901501 3.01541263,6.57142857 2.53840198,6.57142857 C2.34381838,6.57142857 2.2119876,6.58981134 2.14285714,6.60824554 L2.14285714,7.8327439 C2.2245854,7.850921 2.3250529,7.85714286 2.4628414,7.85714286 C2.97176648,7.85714286 3.28571429,7.60495178 3.28571429,7.18034829 Z" id="Shape"></path>
                <path d="M6.13539918,6.57142857 C5.92776136,6.57142857 5.79387384,6.58950042 5.71428571,6.60759748 L5.71428571,9.26728519 C5.79372088,9.2856595 5.92184706,9.2856595 6.03778774,9.2856595 C6.87947933,9.29148181 7.42851503,8.83333389 7.42851503,7.86224277 C7.43468425,7.0175538 6.93433956,6.57142857 6.13539918,6.57142857 Z" id="Shape"></path>
                <path d="M11.6419794,5.00773601 L11.3049923,5.00773601 L11.3049923,3.38569102 C11.3015017,3.29073114 11.2809655,3.22746691 11.2367592,3.17734354 L8.530951,0.0938923495 C8.51265698,0.0739904249 8.49385338,0.0590449182 8.47397965,0.0461073963 C8.43876748,0.026078384 8.42049893,0.0183006204 8.40169533,0.0126833466 C8.36648316,0.00302468587 8.34525903,0 8.32375464,0 L1.67387756,0 C1.37021717,0 1.12352814,0.246372102 1.12352814,0.549044029 L1.12352814,5.00760892 L0.786617477,5.00760892 C0.352223626,5.00760892 0,5.35882832 0,5.79232427 L0,9.87298135 C0,10.3061723 0.352223626,10.6576204 0.786617477,10.6576204 L1.12355362,10.6576204 L1.12355362,13.450956 C1.12355362,13.7536025 1.37024265,14 1.67390304,14 L10.7546684,14 C11.0580485,14 11.3050178,13.7536279 11.3050178,13.450956 L11.3050178,10.6576204 L11.6420049,10.6576204 C12.0762714,10.6576204 12.4285714,10.3061723 12.4285714,9.87298135 L12.4285714,5.79245136 C12.4285459,5.35898083 12.0762459,5.00773601 11.6419794,5.00773601 Z M1.67387756,0.549145699 L8.04857993,0.549145699 L8.04857993,3.358113 C8.04857993,3.50977939 8.17192445,3.63262231 8.32375464,3.63262231 L10.7546429,3.63262231 L10.7546429,5.00791393 L1.67387756,5.00791393 L1.67387756,0.549145699 Z M8.42990074,7.85460084 C8.42990074,8.63939245 8.14343877,9.18050621 7.74655021,9.51520422 C7.31414373,9.87402347 6.65553345,10.0442447 5.85100414,10.0442447 C5.3694484,10.0442447 5.02810437,10.0138199 4.79614228,9.98352218 L4.79614228,5.95697902 C5.13753727,5.90235675 5.58288716,5.87193197 6.05236578,5.87193197 C6.8323332,5.87193197 7.33850179,6.01193171 7.73498268,6.30977431 C8.16157992,6.62609545 8.42990074,7.13081131 8.42990074,7.85460084 Z M1.25347175,10.001772 L1.25347175,5.95697902 C1.53988276,5.90858404 1.94247865,5.87193197 2.50949142,5.87193197 C3.08254275,5.87193197 3.49112623,5.98143068 3.76538369,6.20052977 C4.02761499,6.4071997 4.20400708,6.74787083 4.20400708,7.14931527 C4.20400708,7.5508868 4.07024159,7.89145626 3.82617692,8.12242534 C3.50916546,8.42052211 3.03976327,8.55442165 2.49089165,8.55442165 C2.36915232,8.55442165 2.25903148,8.54824519 2.17405855,8.53604478 L2.17405855,10.0018736 L1.25347175,10.0018736 L1.25347175,10.001772 Z M10.7546684,13.3023397 L1.67387756,13.3023397 L1.67387756,10.6576204 L10.7546684,10.6576204 L10.7546684,13.3023397 Z M11.552089,6.66262044 L9.97266264,6.66262044 L9.97266264,7.59928177 L11.4482361,7.59928177 L11.4482361,8.35352151 L9.97266264,8.35352151 L9.97266264,10.0017974 L9.04030448,10.0017974 L9.04030448,5.90235675 L11.552089,5.90235675 L11.552089,6.66262044 Z" id="Shape"></path>
            </g>
        </g>
    </g>
</svg>